<?xml version="1.0" encoding="utf-8"?>
<!-- Generator: Adobe Illustrator 21.1.0, SVG Export Plug-In . SVG Version: 6.00 Build 0)  -->
<svg version="1.1" id="Layer_1" xmlns="http://www.w3.org/2000/svg" xmlns:xlink="http://www.w3.org/1999/xlink" x="0px" y="0px"
	 viewBox="0 0 512 512" style="enable-background:new 0 0 512 512;" xml:space="preserve">
<style type="text/css">
	.st0{fill:#FFFFFF;}
</style>
<g>
	<g>
		<g>
			<path class="st0" d="M199,188h-7.2h-48v44h51.6c9.2,0,17.2-2.4,17.2-23.6S199,188,199,188z"/>
		</g>
	</g>
	<g>
		<g>
			<path class="st0" d="M199,264h-55.2v56h48.4c0.8,0,2,0,3.6,0c8,0,23.2-3.2,23.2-27.2C219.4,264.4,199,264,199,264z"/>
		</g>
	</g>
	<path class="st0" d="M374.4,0H139.6C63.2,0,1,62.2,1,138.6v234.8C1,449.8,63.2,512,139.6,512h234.8c76.4,0,138.6-62.2,138.6-138.6
		V138.6C513,62.2,450.8,0,374.4,0z M300.5,162.5h85.3v20.3h-85.3V162.5z M260.7,296.2c0,63.4-62.5,65.4-62.5,65.4h-57.7h-1.6H97.4
		V150.3h41h1.6h57.7c31.3,0,56,17.9,56,55.3s-30,39.4-30,39.4C263.5,244.6,260.7,296.2,260.7,296.2z M413.7,292.6H311
		c0,40.6,34.9,37.4,34.9,37.4c32.9,0,31.7-21.1,31.7-21.1h34.9c0,56.9-67.8,54.5-67.8,54.5c-81.2,0-75.9-80.1-75.9-80.1
		s0-80.5,75.9-80.5C424.7,202.4,413.7,292.6,413.7,292.6z"/>
	<g>
		<g>
			<path class="st0" d="M344.2,232.4c-30,0-34.4,31.6-34.4,31.6h64C373.8,264,374.2,232.4,344.2,232.4z"/>
		</g>
	</g>
</g>
</svg>
