<?xml version="1.0" encoding="utf-8"?>
<!-- Generator: Adobe Illustrator 26.0.1, SVG Export Plug-In . SVG Version: 6.00 Build 0)  -->
<svg version="1.1" id="Layer_1" xmlns="http://www.w3.org/2000/svg" xmlns:xlink="http://www.w3.org/1999/xlink" x="0px" y="0px"
	 viewBox="0 0 1218.9 817" style="enable-background:new 0 0 1218.9 817;" xml:space="preserve">
<style type="text/css">
	.st0{fill:#0367B3;}
	.st1{fill:#EFC70A;}
	.st2{fill:#ED1F3D;}
</style>
<polygon class="st0" points="221.7,474.6 255.7,394.9 222,474.6 "/>
<g id="Слой_2">
	<g id="Layer_1_00000103956927499342336320000017761134914311670664_">
		<path class="st0" d="M1014.8,280.1v194.5H923V230.1h41.8C992.4,230.1,1014.8,252.5,1014.8,280.1z"/>
		<path class="st1" d="M1014.8,474.6v176.7H973c-27.6,0-50-22.4-50-50V474.6H1014.8z"/>
		<path class="st0" d="M1218.4,280.1v194.5h-91.8V230.1h41.8C1196,230.1,1218.4,252.5,1218.4,280.1z"/>
		<path class="st1" d="M1218.4,474.6v176.7h-41.8c-27.6,0-50-22.4-50-50V474.6H1218.4z"/>
		<polygon class="st2" points="255.7,394.9 222,474.6 216.4,487.9 216.2,487.5 221.7,474.6 		"/>
		<path class="st1" d="M63.9,696.5v93H53.5v-9.9c-4.3,7.8-11.7,11.8-22.2,11.8c-9.6,0-17.2-3.2-22.8-9.6S0,766.7,0,755.7
			c0-10.2,2.6-18.7,7.9-25.4c5.3-6.7,12.9-10.1,22.8-10.1c9.7,0,17,3.7,22.1,11v-34.7H63.9z M32.2,729.7c-6.4,0-11.4,2.3-15.1,6.9
			s-5.6,10.9-5.6,18.8c0,8.2,1.9,14.7,5.7,19.5c3.6,4.7,9.3,7.5,15.2,7.3c6.5,0,11.5-2.3,15.2-7s5.5-11.1,5.5-19.4
			c0-7.4-1.7-13.6-5.2-18.6C44.5,732.2,39.2,729.7,32.2,729.7L32.2,729.7z"/>
		<path class="st1" d="M124.3,696.5v13.6H113v-13.6H124.3z M124.3,722.1v67.4H113v-67.4H124.3z"/>
		<path class="st1" d="M231.8,722.1v60.1c0.1,4.5-0.2,9-0.9,13.5c-0.6,3.2-1.7,6.2-3.4,9c-5,8.1-13.9,12.2-26.7,12.2
			c-7.6,0-14-1.5-19.2-4.6c-5.2-3.1-8.3-8.2-9.1-15.2h11.4c1.3,7.5,7.1,11.2,17.4,11.2c6.9,0,11.9-1.7,15-5.2
			c3.1-3.5,4.8-9.1,4.9-16.9l0.1-8.2c-4.3,8.2-11.4,12.3-21.4,12.3c-9.1,0-16.3-3.1-21.6-9.3c-5.4-6.2-8-14.5-8-25
			c0-9.8,2.7-18.3,8-25.3s12.7-10.5,22.2-10.5c4.4-0.1,8.7,1,12.6,3c3.7,2,6.7,5,8.7,8.6v-9.8L231.8,722.1z M200.8,730
			c-5.6-0.2-10.9,2.4-14.2,7c-3.4,4.7-5.2,11.1-5.2,19.3c0,7.4,1.8,13.3,5.4,17.8c3.4,4.4,8.7,6.9,14.2,6.7c6.2,0,11-2.4,14.6-7.1
			s5.3-11.2,5.3-19.4c0-7.7-1.8-13.7-5.3-18C212.2,732.1,207.2,729.9,200.8,730L200.8,730z"/>
		<path class="st1" d="M292.1,696.5v13.6h-11.2v-13.6H292.1z M292.1,722.1v67.4h-11.2v-67.4H292.1z"/>
		<path class="st1" d="M370.1,722.1v9.2h-13.5v39.3c0,2.2,0,3.6,0.1,4.3c0.1,1,0.3,1.9,0.7,2.8c0.3,1.1,1.2,1.9,2.2,2.3
			c1.4,0.4,2.9,0.6,4.4,0.5c2,0,4-0.2,6-0.4v9.5c-2.8,0.3-5.7,0.5-8.5,0.5c-2.7,0.1-5.3-0.3-7.8-1c-1.7-0.5-3.3-1.3-4.8-2.3
			c-1.3-1.2-2.1-2.9-2.4-4.6c-0.5-1.8-0.8-3.7-0.9-5.6c-0.1-1.5-0.1-4.1-0.1-7.6v-37.6h-11.4v-9.2h11.4v-20h11.1v20L370.1,722.1z"/>
		<path class="st1" d="M474,780.7v8.6c-2.4,0.9-5,1.3-7.6,1.3c-6.4,0-9.6-3.3-9.8-9.9c-6.4,7.1-14.5,10.7-24.4,10.7
			c-6.6,0-11.9-1.7-15.8-5.1c-3.9-3.4-5.8-8.1-5.8-14c0-12,8-19,23.9-21c1-0.2,2.6-0.3,4.6-0.5c7.6-0.9,12.2-1.9,14-3
			c2-1.4,3-3.8,3-7.2c0-7.4-5.1-11.1-15.3-11.1c-5.2,0-9.2,1.1-11.9,3.2c-2.7,2.1-4.3,5.6-4.8,10.5h-10.9c0.2-7.2,2.7-12.8,7.7-16.9
			s11.8-6,20.5-6c9.5,0,16.6,2.2,21.2,6.5c1.5,1.5,2.7,3.4,3.3,5.5c0.6,1.8,1,3.7,1.2,5.6c0.1,1.4,0.1,3.6,0.1,6.5
			c0,3.3-0.1,8.3-0.3,15c-0.2,6.7-0.3,11.7-0.3,15c0,2.4,0.3,4.2,1,5.2s1.9,1.5,3.6,1.5C472.2,781,473.1,780.9,474,780.7z
			 M456.1,754.5c-0.8,0.6-1.6,1.1-2.5,1.6c-1.1,0.5-2.2,0.8-3.3,1c-1.4,0.3-2.3,0.5-2.7,0.6c-1.1,0.2-2.3,0.4-3.5,0.5l-2.9,0.3
			c-2.7,0.3-4.5,0.6-5.3,0.7s-2.4,0.5-4.7,1.1c-1.8,0.4-3.4,1.1-4.9,2.1c-1.1,1-2.1,2.2-2.8,3.5c-0.9,1.6-1.4,3.5-1.4,5.4
			c-0.1,3.2,1.2,6.2,3.6,8.2c2.4,2,5.7,3,9.9,3c5.1,0.1,10.1-1.6,14.2-4.7c4.2-3.1,6.3-6.8,6.3-11.1L456.1,754.5z"/>
		<path class="st1" d="M528.1,696.5v93h-11.2v-93H528.1z"/>
		<path class="st1" d="M705.2,780.7v8.6c-2.4,0.9-5,1.3-7.6,1.3c-6.4,0-9.6-3.3-9.8-9.9c-6.4,7.1-14.5,10.7-24.4,10.7
			c-6.6,0-11.9-1.7-15.8-5.1c-3.9-3.4-5.8-8.1-5.8-14c0-12,8-19,23.9-21c1-0.2,2.6-0.3,4.6-0.5c7.6-0.9,12.2-1.9,14-3
			c2-1.4,3-3.8,3-7.2c0-7.4-5.1-11.1-15.3-11.1c-5.2,0-9.2,1.1-11.9,3.2c-2.7,2.1-4.3,5.6-4.8,10.5h-10.8c0.2-7.2,2.7-12.8,7.7-16.9
			s11.8-6,20.5-6c9.5,0,16.5,2.2,21.2,6.5c1.5,1.5,2.7,3.4,3.3,5.5c0.6,1.8,1,3.7,1.2,5.6c0.1,1.4,0.1,3.6,0.1,6.5
			c0,3.3-0.1,8.3-0.3,15c-0.2,6.7-0.3,11.7-0.3,15c0,2.4,0.3,4.2,1,5.2s1.8,1.5,3.6,1.5C703.4,781,704.3,780.9,705.2,780.7z
			 M687.3,754.5c-0.8,0.6-1.6,1.1-2.5,1.6c-1.1,0.5-2.2,0.8-3.3,1c-1.4,0.3-2.3,0.5-2.8,0.6c-1.1,0.2-2.3,0.4-3.5,0.5
			c-1.8,0.2-2.8,0.3-2.9,0.3c-2.7,0.3-4.5,0.6-5.3,0.7c-0.8,0.1-2.4,0.5-4.7,1.1c-1.8,0.4-3.4,1.1-4.9,2.1c-1.1,1-2.1,2.2-2.8,3.5
			c-1,1.6-1.4,3.5-1.4,5.4c-0.1,3.2,1.2,6.2,3.6,8.2c2.4,2,5.7,3,9.9,3c5.1,0.1,10.1-1.6,14.2-4.7c4.2-3.1,6.3-6.8,6.3-11.1
			L687.3,754.5z"/>
		<path class="st1" d="M806,722.1v60.1c0.1,4.5-0.2,9-0.9,13.5c-0.6,3.2-1.7,6.2-3.4,9c-5,8.1-13.9,12.2-26.7,12.2
			c-7.6,0-14-1.5-19.2-4.6c-5.2-3.1-8.3-8.2-9.2-15.2H758c1.3,7.5,7.1,11.2,17.4,11.2c6.9,0,11.9-1.7,15-5.2
			c3.1-3.5,4.8-9.1,4.9-16.9l0.1-8.2c-4.3,8.2-11.4,12.3-21.4,12.3c-9.1,0-16.3-3.1-21.6-9.3c-5.4-6.2-8-14.5-8-25
			c0-9.8,2.7-18.3,8-25.3c5.3-7,12.7-10.5,22.2-10.5c4.4-0.1,8.7,1,12.6,3c3.7,2,6.7,5,8.7,8.6v-9.8L806,722.1z M775,730
			c-5.6-0.2-10.9,2.4-14.2,7c-3.4,4.7-5.2,11.1-5.2,19.3c0,7.4,1.8,13.3,5.4,17.8c3.4,4.4,8.7,6.9,14.2,6.7c6.2,0,11-2.4,14.6-7.1
			s5.3-11.2,5.3-19.3c0-7.7-1.8-13.7-5.3-18C786.3,732.1,781.4,730,775,730z"/>
		<path class="st1" d="M912.1,768.3c-3.4,15.7-13.2,23.5-29.4,23.5c-9.9,0-17.7-3.1-23.3-9.3s-8.4-14.8-8.4-25.8
			c0-10.9,2.9-19.7,8.7-26.5c5.8-6.7,13.4-10.1,22.7-10.1c10.4,0,18,3.5,23.1,10.5c5,7,7.5,15.9,7.5,26.6v1.6h-50.7l-0.1,0.8
			c0,7.1,1.9,12.8,5.6,16.9c3.7,4.1,8.9,6.1,15.4,6.1c4.9,0,8.7-1.1,11.6-3.4c2.8-2.3,5-5.9,6.6-11L912.1,768.3z M901.3,749.9
			c-0.5-6.5-2.5-11.5-5.9-15.1c-3.4-3.6-7.9-5.4-13.5-5.4c-5.1-0.1-9.9,1.8-13.5,5.5c-3.6,3.7-5.7,8.7-6.4,15L901.3,749.9z"/>
		<path class="st1" d="M967,722.1v10.5c5.6-8.2,13.2-12.3,23-12.3c7.9,0,13.7,2.1,17.2,6.2s5.3,10.2,5.3,18.2v44.8h-11.1v-39.7
			c0-2.6-0.1-5.2-0.3-7.8c-0.3-2.1-0.8-4.1-1.6-6c-0.8-2.1-2.4-3.7-4.4-4.6c-2.6-1-5.3-1.5-8.1-1.4c-12.8,0-19.2,8.1-19.2,24.3v35.3
			h-11.2v-67.4H967z"/>
		<path class="st1" d="M1119.1,765c-0.9,8.1-4,14.5-9.2,19.3c-5.2,4.8-11.9,7.2-20.2,7.2c-10.2,0-18.1-3.2-23.7-9.5
			s-8.4-14.7-8.4-25.3c0-11.2,2.9-20.1,8.8-26.7c5.8-6.6,13.7-9.9,23.7-9.9c8.3,0,14.9,2.1,19.9,6.2c5,4.1,7.9,10,8.8,17.7h-11.5
			c-2-9.7-7.7-14.6-17-14.6c-6.5,0-11.6,2.4-15.3,7.1c-3.7,4.7-5.6,11.2-5.6,19.3c0,8.2,1.8,14.6,5.4,19.3c3.6,4.7,8.5,7.1,14.8,7.1
			c5.1,0,9.2-1.5,12.3-4.5s5.2-7.2,6.1-12.8L1119.1,765z"/>
		<path class="st1" d="M1218.9,722.1l-28.9,76.1c-1.1,3-2.1,5.4-2.9,7.1c-1,2-2.2,3.9-3.5,5.6c-1.4,1.9-3.3,3.5-5.5,4.5
			c-2.4,1-4.9,1.4-7.5,1.4c-2.8-0.1-5.5-0.5-8.2-1.2v-9.9c2.3,0.8,4.7,1.3,7.2,1.4c3.7,0,6.3-1.9,7.8-5.6l5.2-12.3l-26.8-67h12.5
			l20,53.7l19-53.7L1218.9,722.1z"/>
		<polygon class="st2" points="255.7,394.9 222,474.6 216.4,487.9 216.2,487.5 221.7,474.6 		"/>
		<path class="st0" d="M172,474.6H73.2l-35.3-87.5l-19.3-47.9L1.9,297.9h67.2c10,0.3,19.7,3.7,27.7,9.7c6.8,5,12.1,11.6,15.6,19.3
			l1.6,4L172,474.6z"/>
		<path class="st1" d="M239.9,643.6L239.9,643.6c-6.8,5-15,7.6-23.4,7.6h-40.7c-18.3-0.7-34.8-11.5-42.7-28v-0.1l-2.4-5.8
			L73.2,474.6H172l6.7,16.7l28.4,70.8l19.3,48.1L239.9,643.6z"/>
		<path class="st0" d="M519.7,0.7l-17.5,41.2L481.6,90L317.9,474.6H222l33.7-79.7l-34,79.7h-3l33.7-79.8l0.3-0.8l154.2-362l0.5-1.1
			c0.3-0.6,0.5-1.3,0.8-1.9c7.8-17.2,24.7-28.4,43.5-29h66.5L519.7,0.7z"/>
		<polygon class="st1" points="261.3,607.3 261.3,607.2 258.3,614.5 210.2,494.8 213.1,487.8 218.7,474.6 221.7,474.6 255.7,394.9 
			222,474.6 317.9,474.6 		"/>
		<path class="st1" d="M719.3,474.6c0,46.9-38,84.9-84.9,84.9s-84.9-38-84.9-84.9h-91.8c0,97.6,79.1,176.7,176.7,176.7
			S811,572.2,811.1,474.6v0H719.3z"/>
		<path class="st0" d="M811.1,474.6L811.1,474.6l-91.8,0v0c0-46.9-38-84.9-84.9-84.9s-84.9,38-84.9,84.9v0h-91.8v0
			c0-97.6,79.1-176.7,176.7-176.7C732,297.9,811,377,811.1,474.6z"/>
	</g>
</g>
</svg>
