<svg width="705" height="700" fill="none" xmlns="http://www.w3.org/2000/svg"><path d="M557.988 449.023c-38.719 0-72.678-30.52-72.678-79.256 0-39.202 24.74-75.56 71.915-75.56 43.31 0 71.898 31.638 71.898 78.422 0 33.515-16.357 76.394-71.135 76.394Z" stroke="#3D3D61" stroke-width=".5" stroke-miterlimit="10"/><path d="M557.988 449.952c-19.666 0-37.957-7.677-51.507-21.629-14.443-14.881-22.082-35.126-22.082-58.556 0-20.435 6.561-39.297 18.495-53.097 13.215-15.298 32.008-23.392 54.35-23.392 43.551 0 72.808 31.884 72.808 79.351 0 11.431-1.97 33.287-15.205 51.315-12.676 17.269-31.803 26.008-56.859 26.008Zm-.763-154.798c-48.792 0-71.005 38.69-71.005 74.632 0 51.409 36.098 78.327 71.768 78.327 51.785 0 70.224-38.974 70.224-75.465 0-46.367-28.514-77.494-70.987-77.494Z" stroke="#3D3D61" stroke-width=".5" stroke-miterlimit="10"/><path d="M557.634 412.911c-21.208 0-39.796-16.283-39.796-42.272 0-20.909 13.551-40.302 39.369-40.302 23.718 0 39.369 16.872 39.369 41.818.018 17.876-8.941 40.756-38.942 40.756Z" stroke="#3D3D61" stroke-width=".5" stroke-miterlimit="10"/><path d="M557.634 413.84c-10.873 0-20.985-4.132-28.476-11.658-7.993-8.019-12.212-18.918-12.212-31.543 0-19.867 12.602-41.23 40.298-41.23 24.09 0 40.28 17.174 40.28 42.765 0 6.142-1.097 17.914-8.421 27.638-7.026 9.308-17.602 14.028-31.469 14.028Zm-.409-82.574c-26.431 0-38.458 20.397-38.458 39.373 0 27.145 19.555 41.343 38.867 41.343 28.049 0 38.031-20.567 38.031-39.808.018-24.472-15.447-40.908-38.44-40.908Z" stroke="#3D3D61" stroke-width=".5" stroke-miterlimit="10"/><path d="M534.53 385.216h-.056a2.12 2.12 0 0 1-1.84-1.194c-.335-.664-.297-1.479.093-2.142.465-.816 1.413-1.252 2.286-1.081.911.19 1.673 1.232 1.654 2.294a2.217 2.217 0 0 1-.669 1.497 2.034 2.034 0 0 1-1.468.626Zm.093-2.578a.44.44 0 0 0-.316.189c-.056.114-.075.247-.037.342.037.094.167.17.26.17.037 0 .13-.038.186-.095.074-.075.093-.151.111-.189 0-.152-.13-.341-.204-.417ZM560.645 399.85h-.055a2.12 2.12 0 0 1-1.84-1.194c-.335-.663-.298-1.479.092-2.142.465-.815 1.413-1.251 2.287-1.081.911.19 1.673 1.233 1.654 2.294-.019.55-.26 1.1-.669 1.498-.409.398-.929.625-1.469.625Zm.093-2.597a.44.44 0 0 0-.316.19.494.494 0 0 0-.037.36c.037.095.168.171.26.171.056-.019.131-.038.186-.095.075-.076.112-.152.112-.19 0-.151-.13-.36-.205-.436ZM582.338 377.482h-.056a2.12 2.12 0 0 1-1.84-1.194 2.301 2.301 0 0 1 .093-2.142c.464-.816 1.412-1.252 2.286-1.081.911.19 1.673 1.232 1.654 2.294a2.22 2.22 0 0 1-.669 1.497c-.409.398-.929.626-1.468.626Zm.093-2.578c-.112 0-.242.095-.317.189a.414.414 0 0 0-.018.361c.037.094.167.17.26.17.056 0 .13-.038.186-.095.074-.075.112-.151.112-.189a.801.801 0 0 0-.223-.436ZM569.679 350.393h-.055a2.122 2.122 0 0 1-1.841-1.194 2.304 2.304 0 0 1 .093-2.142c.465-.815 1.413-1.251 2.287-1.081.91.19 1.673 1.232 1.654 2.294-.019.55-.26 1.1-.669 1.498-.428.398-.948.625-1.469.625Zm.075-2.578c-.112 0-.242.095-.316.19-.056.113-.075.246-.019.341.037.095.167.17.26.17.056 0 .13-.037.186-.094.075-.076.112-.152.112-.19 0-.151-.149-.36-.223-.417ZM539.548 354.696h-.055a2.12 2.12 0 0 1-1.84-1.194c-.335-.663-.298-1.479.092-2.142.465-.815 1.413-1.251 2.287-1.081.911.19 1.673 1.233 1.654 2.294-.019.55-.26 1.1-.669 1.498-.428.398-.948.625-1.469.625Zm.075-2.578a.439.439 0 0 0-.316.19c-.056.114-.075.246-.037.341.037.095.167.171.26.171.037 0 .13-.038.186-.095.074-.076.111-.152.111-.19.019-.151-.13-.36-.204-.417ZM557.337 383.661c-6.059 0-11.375-4.739-11.375-12.321 0-6.104 3.866-11.753 11.245-11.753 6.766 0 11.246 4.928 11.246 12.208.018 5.194-2.547 11.866-11.116 11.866Z" stroke="#3D3D61" stroke-width=".5" stroke-miterlimit="10"/><path d="M557.337 384.59c-7.008 0-12.286-5.705-12.286-13.269 0-6.104 3.81-12.682 12.156-12.682 7.268 0 12.156 5.27 12.156 13.137.019 5.914-3.141 12.814-12.026 12.814Zm-.111-24.074c-7.101 0-10.335 5.611-10.335 10.824 0 7.488 5.26 11.393 10.446 11.393 7.528 0 10.223-5.649 10.223-10.957 0-6.843-4.052-11.26-10.334-11.26ZM576.352 438.938h-.056c-.167-.038-.278-.189-.241-.36l3.978-22.691c.037-.17.186-.284.353-.246.167.038.279.19.241.36l-3.977 22.691a.303.303 0 0 1-.298.246ZM619.141 393.159a.263.263 0 0 1-.223-.114l-14.48-17.118a.309.309 0 0 1 .038-.436.295.295 0 0 1 .427.038l14.48 17.118a.31.31 0 0 1-.037.436.277.277 0 0 1-.205.076ZM538.545 327.532a.297.297 0 0 1-.298-.303l-.39-23.089c0-.171.13-.322.297-.322.149 0 .316.132.316.303l.391 23.089c-.019.17-.149.322-.316.322ZM508.21 418.371a.313.313 0 0 1-.149-.588l19.294-10.331a.302.302 0 0 1 .409.133.315.315 0 0 1-.13.417l-19.294 10.331c-.038.038-.093.038-.13.038ZM510.7 363.132a.297.297 0 0 1-.167-.057l-18.476-11.942a.313.313 0 0 1-.093-.436.3.3 0 0 1 .428-.095l18.476 11.942a.314.314 0 0 1 .093.436.32.32 0 0 1-.261.152ZM635.331 365.16c-6.097-5.137-12.194-10.255-18.29-15.392-4.275-3.602-8.644-7.317-11.413-12.341-1.413-2.559-2.361-5.365-3.736-7.924-2.342-4.341-5.948-7.885-10.168-10.009-3.829-1.933-8.569-1.649-12.082-4.151-12.063-8.606-22.788-19.108-30.335-27.183 13.086-5.896 28.532-8.019 41.451-1.706 5.855 2.862 11.152 9.231 17.212 11.563 3.271 1.27 6.822 2.085 9.517 4.474 2.23 1.971 3.253 6.767 4.572 9.516 2.324 4.815 10.094 11.203 12.417 16.037 6.041 12.568 7.063 23.923.855 37.116Z" stroke="#3D3D61" stroke-width=".5" stroke-miterlimit="10"/><path d="M635.331 366.089a.94.94 0 0 1-.576-.208l-18.291-15.393c-4.107-3.45-8.754-7.374-11.635-12.587-.744-1.346-1.357-2.768-1.971-4.132-.557-1.271-1.134-2.579-1.784-3.792-2.249-4.151-5.725-7.582-9.777-9.63-1.599-.796-3.346-1.194-5.205-1.611-2.398-.55-4.888-1.099-7.007-2.616-9.908-7.071-20.15-16.264-30.466-27.297a.978.978 0 0 1-.241-.834.901.901 0 0 1 .52-.663c15.093-6.806 30.465-7.431 42.213-1.707 2.788 1.365 5.465 3.488 8.048 5.555 2.937 2.35 5.967 4.758 9.09 5.971.725.284 1.487.55 2.23.815 2.621.929 5.354 1.877 7.565 3.829 1.711 1.498 2.714 4.322 3.625 6.824.409 1.119.781 2.161 1.19 2.996 1.096 2.293 3.624 5.08 6.059 7.791 2.528 2.805 5.149 5.705 6.357 8.246 6.543 13.629 6.822 25.344.874 37.95a.959.959 0 0 1-.632.512c-.056-.019-.13-.019-.186-.019Zm-84.463-77.626c9.926 10.521 19.778 19.297 29.295 26.084 1.821 1.308 4.015 1.801 6.338 2.312 1.877.418 3.829.872 5.632 1.763 4.387 2.218 8.142 5.915 10.558 10.407.688 1.289 1.283 2.635 1.859 3.943.576 1.327 1.189 2.711 1.877 3.981 2.714 4.929 7.026 8.568 11.209 12.075l17.379 14.635c5.242-11.772 4.814-22.388-1.357-35.24-1.097-2.294-3.624-5.08-6.059-7.791-2.528-2.806-5.149-5.706-6.357-8.227-.447-.929-.837-2.01-1.264-3.185-.818-2.275-1.748-4.853-3.105-6.047-1.933-1.725-4.368-2.578-6.951-3.469-.762-.265-1.543-.531-2.287-.834-3.383-1.308-6.524-3.829-9.572-6.256-2.51-2.009-5.093-4.075-7.714-5.345-10.948-5.327-25.28-4.891-39.481 1.194Z" stroke="#3D3D61" stroke-width=".5" stroke-miterlimit="10"/><path d="M573.676 303.097a.353.353 0 0 1-.186-.057c-5-3.791-9.554-8.246-13.532-13.212a.308.308 0 0 1 .037-.436.295.295 0 0 1 .428.038c3.959 4.928 8.476 9.345 13.42 13.099a.31.31 0 0 1 .056.436c-.037.094-.13.132-.223.132ZM568.843 291.553a.278.278 0 0 1-.205-.076l-3.866-3.355a.309.309 0 0 1-.037-.436.294.294 0 0 1 .427-.038l3.867 3.355a.31.31 0 0 1 .037.436.29.29 0 0 1-.223.114ZM436.944 434.237c-3.067-2.407-5.372-2.54-7.918-4.398-.242-3.052-1.022-8.265-1.376-11.336 2.863-2.597 4.35-3.222 6.841-5.402 0-.417-.26-.815-.521-1.232a151.475 151.475 0 0 0-1.877-2.901 57.666 57.666 0 0 0-8.216-9.63c-2.825 2.616-5.149 5.194-7.472 7.754a39.98 39.98 0 0 0-10.8-2.597 85.274 85.274 0 0 0-1.896-10.408c-4.888.721-9.851 2.067-14.331 4.379.781 3.299 1.599 5.327 2.733 8.209-2.881 2.691-5.707 5.194-7.993 8.075-3.346-1.896-6.115-2.787-9.238-4.606-3.346 5.023-5.614 10.672-5.614 16.51 3.569.474 5.651.342 8.923.588.483 3.791 1.654 7.621 3.178 11.203-2.639 2.503-4.126 4.739-6.431 6.654 1.877 4.455 4.963 8.303 8.736 11.184a280.815 280.815 0 0 1 5.911-6.199c3.123 1.233 7.082 2.939 10.428 3.356 1.04 3.317 1.208 5.156 1.561 8.265 5.149.853 10.409.53 15.483-.683-.464-3.62-.111-5.687-.892-8.814 2.974-2.124 5.911-5.1 7.844-7.791 3.365.606 4.74 1.308 7.658 2.255 2.751-3.867 4.387-8.056 5.279-12.435Zm-29.22 4.455c-2.267.815-4.535 1.516-10.427-2.332-2.324-1.516-7.324-7.867-1.19-15.734 1.952-2.502 5.242-3.98 8.383-3.488 3.123.493 5.502 1.289 7.361 2.92 2.881 2.521 4.126 6.748 3.253 10.483-.911 3.753-3.811 6.881-7.38 8.151Z" stroke="#3D3D61" stroke-width=".5" stroke-miterlimit="10"/><path d="M407.483 463.127c-2.063 0-4.089-.171-6.06-.493a.938.938 0 0 1-.762-.815l-.056-.455c-.297-2.673-.483-4.36-1.301-7.09-2.974-.493-6.32-1.839-9.071-2.938l-.446-.171a268.913 268.913 0 0 0-5.464 5.744.901.901 0 0 1-1.209.114c-3.996-3.033-7.119-7.033-9.033-11.564a.948.948 0 0 1 .26-1.099c1.208-1.005 2.212-2.123 3.271-3.318.8-.91 1.636-1.838 2.658-2.843-1.449-3.488-2.416-6.881-2.899-10.104a66.719 66.719 0 0 0-2.603-.114c-1.747-.056-3.401-.113-5.65-.417a.918.918 0 0 1-.8-.928c0-5.555 1.952-11.279 5.763-17.042a.9.9 0 0 1 1.208-.284c1.543.89 2.992 1.554 4.517 2.255 1.282.588 2.621 1.195 4.052 1.972 1.933-2.313 4.163-4.379 6.506-6.54l.632-.588c-1.004-2.54-1.803-4.606-2.547-7.734a.925.925 0 0 1 .483-1.043c4.145-2.142 9.071-3.658 14.61-4.473a.907.907 0 0 1 1.023.701 82.724 82.724 0 0 1 1.821 9.801 40.74 40.74 0 0 1 9.722 2.35c2.174-2.388 4.442-4.853 7.119-7.336a.899.899 0 0 1 1.226 0 57.965 57.965 0 0 1 8.346 9.8 110.3 110.3 0 0 1 1.896 2.92c.298.474.669 1.042.651 1.744a.948.948 0 0 1-.316.701c-1.19 1.043-2.156 1.744-3.123 2.426-1.004.721-2.026 1.46-3.364 2.635.111.986.279 2.161.446 3.394.316 2.407.669 5.099.855 7.07.966.645 1.914 1.062 2.918 1.517 1.376.606 2.918 1.289 4.684 2.673a.946.946 0 0 1 .335.929c-.985 4.871-2.77 9.061-5.446 12.814a.918.918 0 0 1-1.023.341 50.72 50.72 0 0 1-2.212-.758c-1.524-.55-2.769-.986-4.777-1.365-1.914 2.578-4.554 5.194-7.193 7.166.353 1.668.427 3.089.483 4.587.056 1.118.112 2.294.279 3.715a.934.934 0 0 1-.706 1.024c-3.253.739-6.525 1.119-9.703 1.119Zm-5.093-2.218c4.349.644 8.94.436 13.662-.588a52.137 52.137 0 0 1-.205-3.014c-.074-1.649-.13-3.052-.576-4.834a.983.983 0 0 1 .353-1.005c2.788-1.99 5.707-4.89 7.621-7.563.205-.285.558-.436.892-.36 2.491.455 3.941.966 5.614 1.554.483.171.966.341 1.524.531 2.212-3.261 3.736-6.862 4.628-10.976-1.394-1.005-2.62-1.554-3.829-2.085-1.152-.512-2.36-1.043-3.587-1.953a.905.905 0 0 1-.372-.682c-.149-1.934-.539-4.834-.873-7.393-.186-1.441-.372-2.806-.502-3.905a.958.958 0 0 1 .297-.815c1.58-1.422 2.751-2.275 3.866-3.09.837-.607 1.617-1.175 2.528-1.953a7.737 7.737 0 0 0-.241-.398c-.577-.891-1.209-1.914-1.878-2.881a56.499 56.499 0 0 0-7.472-8.89c-2.528 2.407-4.703 4.795-6.803 7.108a.876.876 0 0 1-1.004.228 38.256 38.256 0 0 0-10.558-2.541.902.902 0 0 1-.818-.815 85.444 85.444 0 0 0-1.672-9.478c-4.722.777-8.941 2.066-12.584 3.848.669 2.673 1.394 4.512 2.36 6.976l.149.398a.947.947 0 0 1-.223 1.043l-1.097 1.024c-2.49 2.312-4.832 4.492-6.803 6.938a.924.924 0 0 1-1.152.227c-1.617-.91-3.123-1.611-4.573-2.275-1.264-.587-2.565-1.175-3.922-1.914-3.123 4.909-4.795 9.781-4.981 14.463 1.766.209 3.178.247 4.665.304 1.06.038 2.138.076 3.402.17.427.038.78.379.836.815.428 3.451 1.487 7.147 3.123 10.957.149.36.074.796-.223 1.062-1.171 1.118-2.101 2.161-3.011 3.184-.948 1.081-1.859 2.086-2.937 3.052 1.691 3.716 4.275 7.033 7.528 9.668a292.758 292.758 0 0 1 5.353-5.611.91.91 0 0 1 .985-.208l1.004.398c2.825 1.137 6.32 2.54 9.201 2.9.353.038.65.303.762.644 1.004 3.128 1.245 5.005 1.543 7.735Zm2.305-20.644c-1.915 0-4.276-.739-7.9-3.109-1.747-1.137-3.866-3.886-4.405-7.203-.539-3.317.464-6.654 2.992-9.914 2.231-2.863 5.855-4.36 9.238-3.829 3.644.587 5.967 1.516 7.807 3.127 3.086 2.711 4.517 7.299 3.532 11.412-.948 4-3.997 7.374-7.937 8.796-1.06.417-2.101.72-3.327.72Zm-1.432-22.274c-2.397 0-4.87 1.214-6.45 3.223-2.193 2.825-3.085 5.649-2.62 8.436.483 2.938 2.416 5.156 3.587 5.933 5.614 3.678 7.565 2.976 9.628 2.237 3.328-1.194 5.986-4.133 6.785-7.488.818-3.469-.372-7.298-2.955-9.573-1.562-1.365-3.625-2.161-6.896-2.692a10.296 10.296 0 0 0-1.079-.076ZM61.12 252.332c-2.417-1.933-4.22-2.009-6.228-3.507-.167-2.464-.762-6.672-1.022-9.137 2.268-2.104 3.457-2.616 5.428-4.398 0-.341-.205-.663-.39-.985a155.57 155.57 0 0 0-1.47-2.332 44.784 44.784 0 0 0-6.43-7.734c-2.231 2.123-4.09 4.208-5.93 6.293a30.698 30.698 0 0 0-8.513-2.028c-.316-2.824-.8-5.63-1.45-8.398-3.866.607-7.77 1.725-11.32 3.621.595 2.654 1.245 4.284 2.119 6.616-2.286 2.18-4.517 4.227-6.357 6.54-2.62-1.498-4.796-2.218-7.268-3.659-2.658 4.076-4.48 8.644-4.517 13.345 2.807.361 4.461.247 7.045.417.353 3.052 1.264 6.142 2.454 9.024-2.1 2.047-3.272 3.848-5.112 5.402a21.796 21.796 0 0 0 6.84 8.967c1.84-2.029 3.012-3.28 4.684-5.024 2.454.986 5.577 2.332 8.216 2.654.8 2.673.93 4.151 1.19 6.654 4.052.663 8.216.379 12.212-.626-.335-2.919-.056-4.587-.67-7.09 2.343-1.725 4.685-4.132 6.228-6.312 2.658.474 3.736 1.043 6.022 1.782 2.212-3.147 3.513-6.559 4.238-10.085Zm-23.068 3.753c-1.785.664-3.588 1.252-8.216-1.819-1.822-1.214-5.744-6.313-.855-12.682 1.561-2.028 4.164-3.242 6.617-2.863 2.454.38 4.331 1.005 5.781 2.313 2.268 2.01 3.216 5.422 2.51 8.436-.707 3.033-3.012 5.573-5.837 6.615Z" stroke="#3D3D61" stroke-width=".5" stroke-miterlimit="10"/><path d="M37.55 275.971c-1.561 0-3.104-.133-4.61-.379a.917.917 0 0 1-.762-.816l-.037-.36c-.223-2.104-.353-3.45-.948-5.554-2.342-.398-4.926-1.46-7.063-2.313l-.205-.075a537.818 537.818 0 0 0-4.256 4.568.904.904 0 0 1-1.227.114c-3.16-2.446-5.632-5.687-7.12-9.346a.95.95 0 0 1 .26-1.08c.949-.815 1.748-1.706 2.566-2.673.632-.72 1.264-1.46 2.045-2.237-1.079-2.73-1.803-5.383-2.175-7.905a69.081 69.081 0 0 0-1.878-.075c-1.375-.038-2.695-.076-4.48-.304a.919.919 0 0 1-.798-.929c.037-4.511 1.598-9.174 4.665-13.857.26-.417.8-.53 1.208-.284 1.209.701 2.342 1.232 3.532 1.782.966.455 1.97.91 3.048 1.497 1.524-1.838 3.253-3.469 5.075-5.213l.427-.398c-.762-2.009-1.375-3.658-1.933-6.142a.947.947 0 0 1 .465-1.042c3.308-1.763 7.212-3.014 11.599-3.716a.908.908 0 0 1 1.022.702 72.654 72.654 0 0 1 1.375 7.753c2.547.284 5.038.891 7.417 1.782 1.71-1.915 3.476-3.886 5.576-5.877a.886.886 0 0 1 1.246 0 45.84 45.84 0 0 1 6.561 7.886c.52.777 1.004 1.574 1.487 2.351.242.398.558.891.54 1.497a.88.88 0 0 1-.317.683c-.948.853-1.728 1.421-2.49 1.99a28.57 28.57 0 0 0-2.584 2.085c.093.778.204 1.688.316 2.635.241 1.896.502 4.019.632 5.611.706.474 1.431.797 2.175 1.138 1.096.493 2.323 1.023 3.717 2.161a.931.931 0 0 1 .335.929c-.818 3.943-2.25 7.355-4.387 10.426a.899.899 0 0 1-1.022.341c-.651-.209-1.209-.417-1.748-.588-1.17-.417-2.119-.758-3.606-1.042-1.505 2.047-3.55 4.113-5.595 5.686.26 1.308.298 2.446.354 3.621.037.91.074 1.839.204 2.976a.937.937 0 0 1-.688 1.024c-2.658.625-5.334.967-7.918.967Zm-3.625-2.104c3.309.454 6.803.265 10.39-.531a38.201 38.201 0 0 1-.13-2.294c-.055-1.308-.092-2.445-.427-3.848a.952.952 0 0 1 .353-.986c2.194-1.611 4.499-3.943 6.004-6.104a.927.927 0 0 1 .892-.379c1.97.341 3.123.758 4.462 1.232.334.114.669.247 1.059.36 1.691-2.559 2.863-5.383 3.587-8.587-1.04-.739-1.97-1.156-2.862-1.573-.93-.417-1.877-.834-2.863-1.574a.936.936 0 0 1-.371-.682c-.112-1.554-.39-3.886-.65-5.952a152.292 152.292 0 0 1-.373-3.147.92.92 0 0 1 .298-.796c1.264-1.175 2.193-1.858 3.085-2.521.614-.455 1.209-.891 1.896-1.479-.037-.057-.074-.133-.111-.189-.484-.778-.967-1.555-1.45-2.313a44.18 44.18 0 0 0-5.67-6.957c-1.932 1.896-3.624 3.791-5.26 5.63a.914.914 0 0 1-1.003.246 28.867 28.867 0 0 0-8.253-1.971.938.938 0 0 1-.837-.834 71.105 71.105 0 0 0-1.227-7.431c-3.587.644-6.803 1.668-9.572 3.052.502 2.085 1.06 3.526 1.784 5.459l.112.323c.13.36.037.758-.223 1.023l-.874.834c-1.97 1.877-3.83 3.64-5.39 5.611a.88.88 0 0 1-1.153.228c-1.264-.72-2.453-1.27-3.587-1.801a51.25 51.25 0 0 1-2.937-1.441c-2.38 3.848-3.68 7.64-3.885 11.279 1.301.133 2.36.171 3.476.209a78.35 78.35 0 0 1 2.695.114c.446.038.8.379.836.815.316 2.767 1.134 5.725 2.398 8.776a.976.976 0 0 1-.204 1.043c-.93.891-1.673 1.744-2.38 2.578-.724.834-1.43 1.649-2.248 2.408a20.706 20.706 0 0 0 5.632 7.449 213.47 213.47 0 0 1 4.126-4.416c.26-.266.65-.361.985-.209l.78.322c2.213.891 4.964 2.01 7.194 2.275.353.038.65.303.762.645.725 2.464.911 3.98 1.134 6.104Zm1.692-16.322c-1.543 0-3.42-.606-6.283-2.502-1.06-.701-3.011-2.73-3.513-5.82-.446-2.71.39-5.554 2.435-8.227 1.822-2.369 4.758-3.639 7.49-3.203 2.9.455 4.778 1.213 6.246 2.521 2.473 2.218 3.606 5.971 2.789 9.364-.781 3.299-3.235 6.066-6.413 7.261-.874.36-1.729.606-2.751.606Zm-.93-17.951c-1.84 0-3.773.966-4.981 2.559-1.729 2.274-2.435 4.549-2.063 6.767.371 2.275 1.821 3.981 2.713 4.568 4.331 2.863 5.818 2.313 7.398 1.726 2.566-.967 4.647-3.299 5.28-5.953.65-2.729-.242-5.762-2.213-7.525-1.19-1.062-2.788-1.688-5.316-2.086a6.332 6.332 0 0 0-.818-.056ZM80.209 33.178a137.33 137.33 0 0 1-11.32-3.488c.576 4.113 1.375 8.075 2.267 12.322 7.175 5.933 21.042 20.567 28.198 26.5.799.664 1.636 1.347 2.639 1.574 1.004.246 2.212-.114 2.658-1.062.484-1.023-.111-2.218-.706-3.184-5.13-8.512-17.324-23.81-23.736-32.662Z" stroke="#3D3D61" stroke-width=".5" stroke-miterlimit="10"/><path d="M102.625 71.09a4.04 4.04 0 0 1-.836-.094c-1.227-.284-2.212-1.1-2.993-1.763-3.606-2.995-8.978-8.227-14.164-13.308C79.484 50.883 74.15 45.67 70.58 42.733a.873.873 0 0 1-.316-.53c-.966-4.531-1.728-8.36-2.286-12.398a.973.973 0 0 1 .316-.853.914.914 0 0 1 .874-.17 145.598 145.598 0 0 0 11.245 3.468c.205.057.39.17.502.341 2.026 2.806 4.665 6.294 7.454 9.971 6.004 7.924 12.807 16.91 16.32 22.767.446.74 1.487 2.464.743 4.075-.502 1.176-1.673 1.688-2.807 1.688ZM71.975 41.5c3.605 3.014 8.847 8.132 13.903 13.099C91.045 59.64 96.36 64.854 99.93 67.792c.688.569 1.45 1.194 2.268 1.384.595.133 1.375-.019 1.617-.55.279-.606-.204-1.554-.651-2.294-3.475-5.762-10.241-14.71-16.208-22.595-2.714-3.583-5.26-6.957-7.286-9.744a145.377 145.377 0 0 1-9.666-2.92c.52 3.337 1.171 6.636 1.97 10.427Z" stroke="#3D3D61" stroke-width=".5" stroke-miterlimit="10"/><path d="M101.733 60.494c-2.844.209-5.465 2.294-6.338 5.061-.52 1.612-.447 3.45.371 4.929 1.06 1.915 3.272 2.995 5.428 2.976 3.29-.038 6.45-2.73 6.766-6.085.316-3.336-2.547-6.71-6.227-6.881Z" stroke="#3D3D61" stroke-width=".5" stroke-miterlimit="10"/><path d="M101.138 74.389c-2.584 0-5-1.346-6.171-3.45-.91-1.65-1.078-3.715-.446-5.668.985-3.128 3.922-5.46 7.138-5.706h.111c2.026.095 3.978 1.062 5.353 2.673 1.283 1.498 1.915 3.412 1.748 5.232-.354 3.715-3.848 6.881-7.659 6.919h-.074Zm.595-12.966c-2.435.208-4.721 2.047-5.484 4.417-.464 1.44-.353 3.014.298 4.17.836 1.517 2.695 2.54 4.628 2.502 2.919-.019 5.595-2.426 5.855-5.232.131-1.308-.353-2.71-1.319-3.829a5.695 5.695 0 0 0-3.978-2.028ZM102.476 25.14a.908.908 0 0 1-.91-.872l-.651-11.734a.925.925 0 0 1 .855-.985c.521-.02.93.36.967.872l.65 11.734a.925.925 0 0 1-.855.985h-.056ZM142.31 64.077a.922.922 0 0 1-.911-.93.95.95 0 0 1 .911-.947l10.075-.076c.501 0 .91.417.91.93a.95.95 0 0 1-.91.947l-10.075.076ZM52.197 68.74a.93.93 0 0 1-.91-.834.93.93 0 0 1 .817-1.024 70.187 70.187 0 0 1 9.573-.379c.502.02.892.455.892.967a.962.962 0 0 1-.948.91 66.421 66.421 0 0 0-9.313.36h-.111Z" stroke="#3D3D61" stroke-width=".5" stroke-miterlimit="10"/><path d="M167.683 70.712a.922.922 0 0 1-.911-.93c-.037-23.297-12.77-45.968-32.454-57.797-19.685-11.829-45.299-12.19-65.3-.929-19.98 11.26-33.346 33.572-34.015 56.85-.018.512-.446.929-.948.91a.928.928 0 0 1-.892-.967c.688-23.923 14.406-46.86 34.964-58.423 20.54-11.564 46.878-11.203 67.101.948 20.224 12.15 33.31 35.467 33.347 59.39a.878.878 0 0 1-.892.948ZM144.541 148.793a55.33 55.33 0 0 1 2.063-14.066c.372-1.327.985-3.677 2.063-4.53 2.175-1.706 16.302.663 20.391 1.611 1.506.36 3.086 1.118 3.699 2.54.39.91.335 1.953.26 2.938a225.394 225.394 0 0 1-1.747 15.393l-26.729-3.886Z" stroke="#3D3D61" stroke-width=".5" stroke-miterlimit="10"/><path d="M171.27 153.608h-.13l-26.711-3.886a.92.92 0 0 1-.78-.948c.074-4.834.78-9.649 2.1-14.312l.074-.266c.428-1.497 1.06-3.753 2.324-4.758 3.011-2.35 20.967 1.403 21.134 1.441 2.156.493 3.699 1.592 4.331 3.071.502 1.156.409 2.445.335 3.393a237.66 237.66 0 0 1-1.748 15.45c-.093.492-.483.815-.929.815Zm-25.781-5.63 25.019 3.639a235.003 235.003 0 0 0 1.617-14.406c.074-1.005.111-1.82-.186-2.484-.539-1.251-2.156-1.801-3.067-2.009-5.632-1.308-18.067-3.014-19.629-1.782-.78.607-1.356 2.673-1.672 3.791l-.075.266a53.848 53.848 0 0 0-2.007 12.985Z" stroke="#3D3D61" stroke-width=".5" stroke-miterlimit="10"/><path d="M178.092 151.125c-2.417-.304-24.833-2.939-36.618-4.436-4.275-.55-9.331 2.9-11.134 8.739-3.253 10.558-11.543 93.322-12.974 108.297-.316 3.393-.632 6.919.613 10.18 1.283 3.355 4.666 5.781 8.569 6.274 17.398 2.218 55.02 7.431 73.477 9.194 2.64.247 6.097-1.365 7.956-3.279 1.859-1.915 2.472-4.569 2.992-7.109 3.848-18.539 7.807-66.84 9.09-73.096 1.691-8.113-31.413-53.419-41.971-54.764Z" stroke="#3D3D61" stroke-width=".5" stroke-miterlimit="10"/><path d="M200.601 290.34c-.223 0-.446-.019-.669-.038-13.55-1.308-37.138-4.417-56.079-6.919-6.859-.91-12.788-1.687-17.417-2.275-4.275-.55-7.918-3.242-9.312-6.862-1.338-3.526-.985-7.298-.669-10.616.093-.966 9.387-96.715 13.011-108.487 1.822-5.895 7.157-10.028 12.119-9.383 8.105 1.023 21.469 2.635 29.443 3.583 3.718.436 6.413.758 7.175.872 6.58.834 20.354 16.624 30.354 30.936 3.179 4.55 13.495 19.81 12.417 24.966-.465 2.256-1.302 10.198-2.361 20.245-1.822 17.326-4.312 41.06-6.747 52.85-.502 2.408-1.116 5.384-3.235 7.564-1.765 1.782-5.074 3.564-8.03 3.564Zm-60.019-142.779c-3.495 0-7.77 2.881-9.387 8.151-3.197 10.35-11.432 92.393-12.937 108.108-.298 3.109-.632 6.635.557 9.762 1.134 2.995 4.22 5.213 7.826 5.687a3607.2 3607.2 0 0 1 17.435 2.275c18.923 2.502 42.492 5.611 56.024 6.919 2.174.209 5.409-1.137 7.23-3.014 1.747-1.801 2.305-4.474 2.751-6.635 2.417-11.677 4.907-35.372 6.71-52.66 1.06-10.104 1.896-18.104 2.38-20.435.594-2.844-4.276-12.284-12.12-23.487-11.58-16.568-24.071-29.534-29.089-30.16-.744-.094-3.439-.417-7.157-.853a5006.613 5006.613 0 0 1-29.461-3.582 3.352 3.352 0 0 0-.762-.076Z" stroke="#3D3D61" stroke-width=".5" stroke-miterlimit="10"/><path d="M170.842 214.514c-8.271 13.895-12.993 22.312-12.788 25.97.111 2.142 2.602 9.194 10.205 10.161 8.122 1.043 11.412-6.407 11.412-9.44-.018-4.076-5.985-20.511-8.829-26.691Z" stroke="#3D3D61" stroke-width=".5" stroke-miterlimit="10"/><path d="M169.746 251.688c-.521 0-1.06-.038-1.599-.095-8.011-1.024-10.874-8.455-11.004-11.052-.186-3.753 3.829-11.203 12.937-26.5.168-.285.502-.455.837-.455a.94.94 0 0 1 .781.53c2.658 5.763 8.903 22.596 8.922 27.089 0 2.18-1.301 5.554-3.829 7.829-1.971 1.744-4.369 2.654-7.045 2.654Zm.985-35.183c-6.84 11.525-11.933 20.53-11.766 23.923.074 1.346 1.989 8.341 9.405 9.288 2.826.36 5.242-.341 7.175-2.085 2.342-2.123 3.216-5.08 3.216-6.426-.019-3.564-5.056-17.743-8.03-24.7ZM211.922 207.576h-.038c-8.327-1.042-16.803-2.18-24.981-3.279-17.956-2.389-36.525-4.872-54.853-6.635a.315.315 0 0 1-.279-.341c.019-.171.168-.284.335-.284 18.327 1.763 36.915 4.246 54.871 6.634 8.179 1.1 16.655 2.218 24.982 3.28a.3.3 0 0 1 .26.341c-.019.171-.149.284-.297.284ZM204.598 267.422h-.037c-12.882-1.612-26.116-3.147-38.904-4.626-13.569-1.573-27.585-3.185-41.005-4.891a.3.3 0 0 1-.26-.341.297.297 0 0 1 .334-.265c13.402 1.706 27.436 3.317 40.986 4.891 12.789 1.478 26.023 2.995 38.905 4.625.167.019.278.171.26.341 0 .133-.13.266-.279.266ZM143.519 203.008h-.038l-11.617-1.175a.316.316 0 0 1-.279-.342.328.328 0 0 1 .335-.284l11.617 1.175a.315.315 0 0 1 .279.342c0 .151-.13.284-.297.284ZM152.422 144.622h-.037a.3.3 0 0 1-.26-.341c.204-1.687.39-3.507.557-5.27.13-1.232.242-2.445.372-3.658a.297.297 0 0 1 .334-.266c.168.019.279.171.261.342-.13 1.194-.261 2.426-.372 3.658a206.007 206.007 0 0 1-.558 5.289.301.301 0 0 1-.297.246ZM158.649 145.419h-.037c-.168-.019-.279-.171-.26-.342.204-1.687.39-3.506.557-5.269.112-1.233.242-2.446.372-3.659a.296.296 0 0 1 .334-.265c.168.019.279.17.261.341-.13 1.194-.261 2.426-.372 3.658a206.007 206.007 0 0 1-.558 5.289.322.322 0 0 1-.297.247ZM164.857 146.196h-.037a.3.3 0 0 1-.26-.341c.204-1.688.39-3.507.557-5.27.131-1.232.242-2.446.372-3.659a.3.3 0 1 1 .595.076c-.13 1.194-.26 2.426-.372 3.659a211.046 211.046 0 0 1-.557 5.288c0 .133-.131.247-.298.247ZM446.406 653.391a30.3 30.3 0 0 0-14.294-1.535c-1.71.227-3.532.587-5.075-.209-2.137-1.118-2.751-3.033-2.825-4.948-.13-3.393.874-5.156 2.751-5.686 2.677-.74 5.483.341 8.253.492 3.699.209 7.305-1.27 11.022-1.44.075 3.924-.278 7.829.168 13.326Z" stroke="#3D3D61" stroke-width=".5" stroke-miterlimit="10"/><path d="M446.406 654.339a.922.922 0 0 1-.316-.057 29.021 29.021 0 0 0-13.867-1.478l-.446.056c-1.636.228-3.513.493-5.167-.36-2.101-1.099-3.235-3.033-3.328-5.744-.13-3.734 1.023-5.952 3.439-6.615 1.952-.531 3.904-.209 5.799.113.948.152 1.841.304 2.733.361 1.97.113 3.903-.285 5.967-.702 1.617-.322 3.271-.663 4.962-.739a.9.9 0 0 1 .67.246 1 1 0 0 1 .297.664c.037 1.384 0 2.748-.019 4.208-.037 2.711-.093 5.535.186 9.061a.953.953 0 0 1-.353.815 1.132 1.132 0 0 1-.557.171Zm-10.261-3.678c3.123 0 6.264.474 9.238 1.422-.186-2.995-.13-5.554-.093-7.848.019-1.08.037-2.123.037-3.146-1.226.132-2.453.379-3.754.644-2.082.417-4.22.853-6.432.739-.985-.057-1.97-.227-2.937-.379-1.784-.303-3.457-.587-5.018-.151-.967.265-2.212 1.042-2.082 4.739.074 2.047.818 3.374 2.342 4.151 1.134.588 2.639.379 4.071.171l.464-.057a30.68 30.68 0 0 1 4.164-.285Z" stroke="#3D3D61" stroke-width=".5" stroke-miterlimit="10"/><path d="m509.529 658.168-27.045-.398c-1.394-.019-3.178 1.952-4.442 1.346-.651-.304-2.547-1.441-3.253-1.593-1.989-.417-3.16 2.029-5.167 1.65-.855-.152-3.03-2.446-3.848-2.711-2.732-.853-2.491 3.279-5.298 2.862-3.029-.436-3.067-2.957-4.591-2.464-1.041.341-2.881 1.422-3.699.72-2.695-.929-5.966-2.142-8.42-3.62 0 0 .26-14.938.13-14.673 3.179-1.781 6.915-4.966 10.298-3.582.576.227 1.189.568 1.784.398.688-.19 2.008-.986 2.584-1.422 2.416-1.858 5.762 1.213 6.19 1.536 1.97 1.497 3.438-2.863 5.743-1.972 1.19.455 2.603 1.763 4.015 1.953 1.023.132 3.104-1.593 4.071-1.65 1.58-.094 2.9 1.346 3.309 1.346 13.215 0 14.814.436 27.993.436l-.354 21.838Z" stroke="#3D3D61" stroke-width=".5" stroke-miterlimit="10"/><path d="M460.867 660.291c-.167 0-.335-.019-.521-.038-1.933-.284-2.881-1.308-3.513-1.99-.52-.55-.557-.55-.669-.512-.223.076-.483.19-.762.303-1.171.493-2.602 1.081-3.643.36-2.621-.909-5.911-2.123-8.439-3.658a.966.966 0 0 1-.446-.815c.093-5.137.204-13.421.167-14.464a1.051 1.051 0 0 1 .075-.626.975.975 0 0 1 .409-.417c.594-.341 1.208-.72 1.84-1.118 2.844-1.782 6.059-3.791 9.201-2.502l.26.114c.353.151.725.322.948.265.483-.133 1.691-.815 2.268-1.27 1.282-.986 3.568-1.536 7.156 1.441l.111.094c.335.266.577.19 1.673-.777.93-.815 2.212-1.952 3.848-1.327.539.209 1.078.531 1.636.872.743.455 1.505.929 2.174 1.024.298.019 1.227-.493 1.729-.758.837-.455 1.543-.853 2.193-.891 1.357-.057 2.491.682 3.179 1.118.111.076.242.152.335.209 6.542 0 10.279.113 13.903.208 3.625.114 7.379.209 13.941.209a.86.86 0 0 1 .65.284.955.955 0 0 1 .261.663l-.353 21.876c0 .512-.409.91-.911.91h-.019l-27.045-.398c-.372 0-.985.341-1.524.625-1.004.55-2.156 1.176-3.29.626a56.517 56.517 0 0 1-.855-.455c-.632-.341-1.822-.986-2.194-1.062-.613-.132-1.133.171-1.914.683-.837.531-1.877 1.213-3.234.948-.651-.114-1.376-.702-2.491-1.631-.483-.398-1.227-1.023-1.469-1.118-.687-.209-.929 0-1.635.967-.614.853-1.45 2.028-3.03 2.028Zm-4.61-4.436c.874 0 1.45.626 1.896 1.119.558.606 1.134 1.232 2.435 1.421.781.114 1.097-.227 1.785-1.175.65-.91 1.654-2.275 3.661-1.649.539.171 1.134.663 2.082 1.441.521.436 1.394 1.156 1.673 1.251.595.114 1.115-.19 1.896-.702.855-.549 1.896-1.213 3.271-.947.577.113 1.525.606 2.677 1.251.316.17.595.322.781.417.297.151 1.078-.285 1.635-.588.781-.417 1.58-.872 2.417-.853l26.134.379.316-19.999c-6.022-.019-9.61-.114-13.067-.208-3.643-.114-7.398-.209-13.997-.209-.409 0-.724-.208-1.189-.512-.558-.36-1.32-.872-2.082-.834-.242.019-.967.417-1.413.664-1.003.549-1.97 1.08-2.825.986-1.059-.133-2.026-.74-2.9-1.271-.483-.303-.948-.587-1.319-.72-.577-.227-1.134.228-2.008.986-.948.834-2.361 2.085-3.959.853-.037-.019-.093-.076-.167-.133-2.119-1.744-3.829-2.237-4.908-1.403-.539.417-1.988 1.327-2.899 1.574-.818.208-1.543-.095-2.119-.341l-.242-.095c-2.286-.929-4.981.739-7.565 2.369-.502.304-.967.607-1.45.891.019.436 0 1.005 0 1.782 0 1.384-.037 3.223-.056 5.062-.037 2.805-.093 5.63-.111 6.786 2.36 1.346 5.372 2.445 7.788 3.279a.92.92 0 0 1 .297.171c.279.152 1.488-.341 1.934-.531.334-.133.632-.265.91-.36.279-.114.484-.152.688-.152Z" stroke="#3D3D61" stroke-width=".5" stroke-miterlimit="10"/><path d="M528.545 660.083c12.602.417 18.327.36 30.93-.114 3.011-.114 6.264-.341 8.625-2.389 2.063-1.801 3.029-4.644 3.643-7.431.929-4.189 1.134-9.042-1.432-12.34-2.676-3.45-7.342-3.962-11.524-4.152-12.379-.587-17.881-.549-30.242 0 .093 0-1.97-5.705-1.97-5.705l-13.049.17-1.599 5.611-5.111-.038.074 26.843 5.186-.266 1.357 5.27 12.788-.19 2.324-5.269Z" stroke="#3D3D61" stroke-width=".5" stroke-miterlimit="10"/><path d="M513.451 666.433a.936.936 0 0 1-.892-.701l-1.171-4.531-4.442.228c-.242 0-.502-.076-.669-.247a.91.91 0 0 1-.279-.682l-.075-26.842c0-.247.093-.493.261-.664.167-.171.427-.246.65-.265l4.406.038 1.412-4.929a.9.9 0 0 1 .874-.663l13.048-.171h.019c.39 0 .725.246.855.606.967 2.692 1.524 4.19 1.784 5.081 11.655-.493 17.138-.55 29.611.038 4.368.208 9.256.739 12.193 4.511 2.324 2.995 2.881 7.412 1.599 13.118-.576 2.597-1.543 5.839-3.941 7.924-2.509 2.18-5.781 2.483-9.182 2.616-12.64.493-18.458.512-30.391.132l-2.045 4.664c-.148.322-.464.549-.818.549l-12.807.19Zm-1.356-7.128c.409 0 .78.285.892.702l1.171 4.568 11.487-.17 2.063-4.701a.892.892 0 0 1 .855-.55c12.305.398 18.068.379 30.875-.114 3.067-.114 5.985-.379 8.067-2.161 1.988-1.725 2.825-4.606 3.345-6.919.781-3.526 1.19-8.398-1.264-11.544-2.453-3.166-6.877-3.621-10.836-3.811-12.658-.587-18.086-.53-30.168 0-.446.019-.892-.341-.948-.834-.13-.493-1.004-2.938-1.71-4.872l-11.729.152-1.413 4.948a.899.899 0 0 1-.873.663l-4.183-.038.075 24.928 4.238-.209c.018-.038.037-.038.056-.038Z" stroke="#3D3D61" stroke-width=".5" stroke-miterlimit="10"/><path d="M565.906 660.329c-.483 0-.948-.019-1.413-.038a.926.926 0 0 1-.855-.986.933.933 0 0 1 .967-.872c2.658.152 5.688-.208 8.625-.568a89.872 89.872 0 0 1 3.438-.38c1.339-.132 2.844-.322 3.755-1.232.725-.701 1.041-1.819 1.283-2.938a31.962 31.962 0 0 0-.688-16.208c-.149-.492.111-1.023.595-1.175a.915.915 0 0 1 1.152.607 33.851 33.851 0 0 1 .725 17.174c-.297 1.384-.725 2.806-1.803 3.867-1.338 1.308-3.197 1.593-4.851 1.744a90.244 90.244 0 0 0-3.402.379c-2.509.304-5.093.626-7.528.626Z" stroke="#3D3D61" stroke-width=".5" stroke-miterlimit="10"/><path d="M572.523 647.306c-.483 0-.873-.379-.911-.872-.037-.512.354-.967.855-.986l5.317-.341a.909.909 0 0 1 .966.872c.037.512-.353.967-.855.986l-5.316.341h-.056ZM529.103 656.253a.296.296 0 0 1-.298-.303v-17.933c0-.17.13-.303.298-.303.167 0 .297.133.297.303v17.933c.019.171-.13.303-.297.303ZM535.459 656.253a.296.296 0 0 1-.297-.303v-17.933c0-.17.13-.303.297-.303.168 0 .298.133.298.303v17.933c0 .171-.13.303-.298.303ZM541.798 656.254a.297.297 0 0 1-.297-.304v-17.932a.297.297 0 1 1 .594 0v17.932c.019.171-.13.304-.297.304ZM548.155 656.253a.297.297 0 0 1-.298-.303v-17.933a.297.297 0 1 1 .595 0v17.933c0 .171-.13.303-.297.303ZM554.493 655.988a.297.297 0 0 1-.297-.303v-17.933c0-.171.13-.303.297-.303.168 0 .298.132.298.303v17.933c.018.17-.13.303-.298.303ZM560.85 655.988a.297.297 0 0 1-.297-.303v-17.933c0-.171.13-.303.297-.303.167 0 .297.132.297.303v17.933c0 .17-.13.303-.297.303ZM512.652 656.253a.296.296 0 0 1-.297-.303v-17.933a.297.297 0 1 1 .595 0v17.933a.297.297 0 0 1-.298.303ZM392.854 544.449c10.391.265 59.723.891 70.113 1.156 6.209.152 12.937.19 17.882-2.672-.298 7.753-.372 16.795-.186 24.548-4.517-2.332-14.74-2.559-17.621-2.521-12.807.133-58.403-.683-71.21-.531l1.022-19.98Z" stroke="#3D3D61" stroke-width=".5" stroke-miterlimit="10"/><path d="M480.681 568.41a.997.997 0 0 1-.409-.095c-3.922-2.028-12.955-2.483-17.193-2.426-6.413.076-21.265-.095-35.633-.265-14.35-.171-29.183-.342-35.577-.266a.816.816 0 0 1-.669-.284 1.055 1.055 0 0 1-.26-.702l1.003-19.98a.918.918 0 0 1 .93-.891c5.186.133 20.372.361 35.056.588 14.685.228 29.871.455 35.075.588 6.562.17 12.844.094 17.398-2.559a.866.866 0 0 1 .93.019c.279.17.446.492.446.834a413.702 413.702 0 0 0-.186 24.491c0 .323-.149.645-.427.815a.887.887 0 0 1-.484.133Zm-17.231-4.379c2.026 0 11.06.114 16.283 2.028-.13-6.957-.074-14.653.149-21.591-4.758 2.18-10.725 2.218-16.933 2.066-5.186-.132-20.373-.36-35.057-.587-13.922-.209-28.29-.417-34.183-.569l-.911 18.084c6.859-.037 20.986.114 34.648.285 14.35.17 29.183.341 35.577.265.074.019.204.019.427.019ZM418.468 509.19c7.268.247 43.031.778 50.299 1.024 4.33.152 9.052.171 12.509-2.711-.223 7.753-.297 16.796-.167 24.549-3.16-2.332-10.298-2.521-12.305-2.484-8.96.171-40.819-.549-49.778-.379l-.558-19.999Z" stroke="#3D3D61" stroke-width=".5" stroke-miterlimit="10"/><path d="M481.09 532.981a.955.955 0 0 1-.539-.171c-2.639-1.953-8.847-2.37-11.747-2.313-4.498.076-14.889-.057-24.926-.189-10.019-.133-20.391-.266-24.852-.19-.521-.019-.911-.398-.929-.91l-.54-19.98c0-.265.093-.512.261-.682a.847.847 0 0 1 .669-.266c3.624.114 14.554.323 25.13.512 10.577.19 21.525.398 25.168.512 4.498.152 8.811.076 11.896-2.502a.895.895 0 0 1 .986-.114.91.91 0 0 1 .501.872c-.223 7.772-.297 16.701-.167 24.511 0 .36-.186.682-.483.834a1.85 1.85 0 0 1-.428.076Zm-11.97-4.36c1.524 0 7.305.113 11.022 1.819-.074-6.824-.018-14.35.149-21.136-3.327 1.934-7.379 1.99-11.58 1.839-3.625-.114-14.554-.322-25.131-.512-9.758-.171-19.833-.36-24.182-.474l.483 18.084c4.87-.056 14.591.076 23.997.209 10.037.133 20.409.284 24.87.19.037-.019.167-.019.372-.019ZM570.144 550.989c5.223.379 50.15.815 54.778.739 11.246-.17 20.168-1.706 24.313-4.568 2.825-1.953 4.963-6.73 5.26-9.801 1.58-15.809-4.405-27.183 10.242-28.472 2.231-.19 27.807 0 31.097.303 0 0-.093-12.132-.074-18.729-1.394-.132-27.584-.208-31.357-.208-11.32-.019-24.295-2.9-28.402 13.25-1.023 4.019-1.227 11.242-.893 15.374.688 8.436-2.007 10.919-11.338 11.601-3.476.247-47.789-.038-53.273-.076l-.353 20.587Z" stroke="#3D3D61" stroke-width=".5" stroke-miterlimit="10"/><path d="M623.156 552.657c-9.665 0-48.272-.398-53.086-.758a.942.942 0 0 1-.855-.948l.334-20.548c0-.512.409-.91.911-.91 13.774.094 50.168.284 53.217.075 4.981-.36 7.714-1.251 9.126-2.938 1.246-1.497 1.673-3.848 1.357-7.658-.353-4.417-.111-11.677.911-15.696 3.773-14.767 14.963-14.388 24.852-14.047 1.468.057 2.992.095 4.442.114.298 0 29.889.076 31.432.209.465.038.836.455.836.929-.018 6.52.075 18.596.075 18.709 0 .266-.112.512-.298.702a.955.955 0 0 1-.706.246c-3.513-.322-28.904-.474-30.93-.303-9.74.853-9.554 6.066-9.219 15.544.13 3.583.26 7.658-.186 12.094-.335 3.393-2.603 8.36-5.67 10.483-4.126 2.863-12.937 4.55-24.814 4.739-.335-.038-.93-.038-1.729-.038Zm-52.083-2.559c8.03.36 49.221.777 53.83.702 11.525-.19 19.982-1.744 23.811-4.417 2.51-1.744 4.573-6.199 4.87-9.137.428-4.303.298-8.303.168-11.829-.316-9.194-.577-16.473 10.892-17.459 2.323-.208 24.592 0 30.242.247-.018-2.882-.074-11.336-.074-16.834-4.461-.094-24.48-.17-30.447-.17-1.487 0-3.011-.057-4.498-.114-10.093-.341-19.629-.663-23.03 12.663-.948 3.696-1.208 10.786-.855 15.07.353 4.341-.205 7.128-1.803 9.023-1.803 2.142-4.814 3.185-10.391 3.583-3.457.247-45.688-.019-52.454-.057l-.261 18.729Z" stroke="#3D3D61" stroke-width=".5" stroke-miterlimit="10"/><path d="m471.722 570.457.279-64.755c.018-2.957 3.03-6.103 6.747-6.066l99.147.683c5.112.038 7.658 4.777 7.658 7.734l-.743 64.053c-.019 2.958-3.03 6.484-6.748 6.465l-98.422-.474c-3.736-.038-7.936-3.223-7.918-7.64Z" stroke="#3D3D61" stroke-width=".5" stroke-miterlimit="10"/><path d="M578.1 579.499h-.037l-98.422-.474c-4.183-.019-8.83-3.544-8.811-8.568l.279-64.755c0-1.63.762-3.317 2.082-4.644 1.487-1.497 3.494-2.351 5.539-2.351h.056l99.146.683c5.54.038 8.569 5.156 8.569 8.682l-.743 64.053c0 1.706-.874 3.602-2.286 5.043-1.543 1.497-3.439 2.331-5.372 2.331Zm-105.448-9.042c-.019 3.791 3.68 6.673 6.989 6.692l98.422.474h.037c1.45 0 2.899-.645 4.052-1.801 1.097-1.1 1.747-2.502 1.747-3.735l.744-64.053c.018-2.275-2.026-6.767-6.748-6.805l-99.147-.683c-1.58 0-3.122.645-4.293 1.82-.967.986-1.543 2.199-1.543 3.336l-.26 64.755Z" stroke="#3D3D61" stroke-width=".5" stroke-miterlimit="10"/><path d="M577.133 574.476c-.019 0-.019 0 0 0a.29.29 0 0 1-.297-.322c.91-22.634 1.059-45.59.446-68.243 0-.171.13-.322.297-.322.167 0 .316.132.316.303.614 22.653.465 45.628-.446 68.281-.019.17-.167.303-.316.303ZM479.77 573.813a.297.297 0 0 1-.297-.304 996.285 996.285 0 0 1 .13-67.901c0-.171.149-.304.316-.304s.297.152.297.323a995.815 995.815 0 0 0-.13 67.863c0 .171-.13.304-.316.323ZM370.493 549.567c1.636-3.961 1.562-8.909-1.375-11.828-2.435-2.427-6.376-3.109-8.513-5.801-2.751-3.469-1.413-8.606-.149-12.985 1.245-4.379 2.026-9.8-1.376-12.644-2.769-2.332-6.951-1.763-10.669-1.422-4.628.417-9.666.133-13.142-2.748-3.754-3.128-4.832-8.587-8.457-11.867-3.513-3.185-8.996-3.715-13.625-2.066-4.628 1.649-8.439 5.213-11.19 9.288-5.52 8.152-7.1 18.293-6.449 27.866.427 6.199 1.821 12.492 5.539 17.364 3.717 4.872 10.149 7.981 16.32 6.502 2.825-.682 5.725-2.275 8.438-1.403 5.038 1.612 4.257 9.611 8.551 12.606 1.821 1.27 4.238 1.384 6.506 1.46 3.81.114 10.297 7.639 17.323 4.701 11.618-4.872 10.502-12.757 12.268-17.023Z" stroke="#3D3D61" stroke-width=".5" stroke-miterlimit="10"/><path d="M354.824 568.201c-3.513 0-6.71-1.838-9.443-3.393-1.747-1.004-3.401-1.952-4.517-1.99-2.174-.076-4.888-.152-6.989-1.63-2.211-1.536-3.159-4.114-4.089-6.616-1.022-2.749-1.914-5.137-4.219-5.877-1.692-.549-3.588.076-5.595.721-.762.246-1.562.512-2.361.701-6.078 1.46-13.011-1.289-17.249-6.843-3.327-4.36-5.205-10.199-5.725-17.857-.539-7.734.186-18.956 6.598-28.453 2.231-3.299 6.06-7.64 11.655-9.63 5.26-1.877 10.948-.986 14.536 2.256 1.877 1.687 3.085 3.905 4.256 6.028 1.208 2.218 2.361 4.303 4.164 5.8 2.676 2.237 6.766 3.052 12.491 2.54l.725-.056c3.624-.342 7.732-.721 10.613 1.706 3.03 2.54 3.569 6.995 1.673 13.629-1.338 4.701-2.361 9.175-.018 12.132 1.022 1.289 2.565 2.104 4.2 2.939 1.487.758 3.012 1.554 4.238 2.786 3.365 3.374 3.216 8.891 1.58 12.871-.353.853-.576 1.877-.855 3.052-1.003 4.417-2.36 10.464-11.914 14.445a10.087 10.087 0 0 1-3.755.739Zm-30.67-21.572c.651 0 1.32.095 1.97.303 3.142 1.005 4.276 4.057 5.372 6.995.874 2.332 1.692 4.531 3.42 5.744 1.655 1.156 4.071 1.232 6.023 1.289 1.561.057 3.327 1.062 5.353 2.218 3.495 2.009 7.454 4.284 11.599 2.54 8.68-3.62 9.87-8.909 10.836-13.137.279-1.213.539-2.369.948-3.355 1.413-3.393 1.599-8.056-1.171-10.805-1.022-1.024-2.36-1.725-3.792-2.445-1.728-.891-3.531-1.82-4.795-3.431-3.141-3.962-1.506-9.668-.316-13.839 1.673-5.838 1.32-9.648-1.078-11.677-2.305-1.933-5.855-1.611-9.275-1.289l-.725.076c-6.227.569-10.726-.398-13.811-2.957-2.063-1.725-3.364-4.057-4.61-6.331-1.152-2.086-2.23-4.076-3.885-5.555-3.085-2.786-8.067-3.526-12.714-1.876-5.13 1.819-8.68 5.857-10.743 8.928-6.134 9.061-6.803 19.828-6.283 27.278.502 7.279 2.249 12.796 5.353 16.852 3.811 4.986 10 7.469 15.391 6.18.725-.17 1.45-.417 2.23-.663 1.525-.531 3.105-1.043 4.703-1.043ZM351.571 495.011c3.532 1.194 7.528.626 9.982-1.44 2.453-2.067 3.253-5.498 2.007-8.626-.613-1.535-1.803-3.071-3.531-3.715-1.079-.398-2.342-.474-3.16-1.213-.502-.455-.725-1.081-1.078-1.631-1.041-1.668-3.16-2.71-5.205-3.165-3.327-.739-6.933-.19-8.996 1.858-2.826 2.767-2.064 7.677 1.003 10.956 3.03 3.299 7.844 5.043 8.978 6.976Z" stroke="#3D3D61" stroke-width=".5" stroke-miterlimit="10"/><path d="M355.326 496.547a12.33 12.33 0 0 1-4.034-.664.961.961 0 0 1-.502-.398c-.446-.739-1.84-1.63-3.327-2.578-1.822-1.156-3.885-2.464-5.539-4.227-3.606-3.868-4.034-9.27-.967-12.265 2.194-2.161 5.967-2.957 9.833-2.085 2.64.587 4.74 1.895 5.781 3.582.112.19.205.361.316.55.186.36.353.664.595.891.39.36 1.022.512 1.691.683.391.094.781.208 1.171.341 1.766.663 3.253 2.199 4.071 4.227 1.394 3.488.483 7.374-2.268 9.687-1.765 1.478-4.256 2.256-6.821 2.256Zm-3.179-2.332c3.16.967 6.673.436 8.811-1.365 2.137-1.782 2.825-4.815 1.728-7.545-.297-.72-1.171-2.502-2.992-3.184a6.77 6.77 0 0 0-.985-.285c-.818-.208-1.729-.455-2.454-1.099-.483-.436-.743-.948-.985-1.384-.074-.152-.167-.303-.26-.455-.781-1.27-2.472-2.256-4.629-2.749-3.234-.72-6.431-.094-8.178 1.612-2.287 2.256-1.822 6.578 1.022 9.649 1.487 1.592 3.457 2.843 5.186 3.924 1.599 1.004 2.993 1.876 3.736 2.881ZM14.724 404.779c.465-5.384 3.55-17.687 11.617-17.687 6.84 0 71.043-.341 82.288-.284 36.748.19 68.031 34.368 94.779 61.324 5.558 5.592 11.264 11.449 14.071 19.032 2.268 6.142 2.435 12.928 2.565 19.544.223 11.108.837 10.862.855 20.473-10.613-3.507-24.313-4.095-34.87-4.095-32.12 0-48.105 21.004-46.302 55.012-12.807.056-109.65 3.241-116.508-4.152-7.064-7.62-10.967-23.525-10.893-34.273.205-39.164-.93-75.882 2.398-114.894Z" stroke="#3D3D61" stroke-width=".5" stroke-miterlimit="10"/><path d="M84.763 559.728c-31.655 0-58.459-1.119-62.213-5.156-7.064-7.602-11.209-23.715-11.153-34.918.056-9.156.019-18.293 0-27.126-.074-29.781-.149-57.912 2.398-87.825.446-5.156 3.55-18.539 12.528-18.539 2.342 0 11.357-.038 22.77-.095 21.99-.095 52.12-.228 59.518-.19 34.833.19 64.351 30.103 90.373 56.49a645.112 645.112 0 0 0 5.056 5.099c5.316 5.365 11.357 11.45 14.294 19.355 2.361 6.369 2.51 13.535 2.621 19.847.112 5.308.297 8.038.483 10.445.186 2.692.372 5.005.372 10.047a.913.913 0 0 1-1.19.891c-8.271-2.73-19.591-4.057-34.591-4.057-14.517 0-25.856 4.284-33.681 12.701-8.606 9.27-12.659 23.544-11.711 41.306a.907.907 0 0 1-.241.682.946.946 0 0 1-.669.285c-1.785 0-5.131.075-9.759.17-14.889.36-30.558.588-45.205.588ZM104.8 387.756c-11.04 0-36.45.114-55.67.19a8051.58 8051.58 0 0 1-22.789.094c-7.565 0-10.334 12.455-10.706 16.834-2.546 29.837-2.472 57.93-2.398 87.673.019 8.833.056 17.989 0 27.145-.056 10.824 3.904 26.349 10.65 33.61 1.32 1.421 8.849 3.905 44.333 4.473 22.398.361 47.975-.151 61.73-.436 3.903-.076 6.914-.132 8.829-.17-.781-17.838 3.457-32.245 12.249-41.723 8.197-8.815 19.963-13.289 35.001-13.289 14.48 0 25.614 1.233 33.959 3.773-.037-4.114-.185-6.218-.353-8.644-.167-2.427-.371-5.194-.483-10.54-.13-6.464-.26-13.156-2.509-19.241-2.788-7.525-8.662-13.459-13.867-18.691-1.673-1.687-3.346-3.393-5.056-5.118-25.781-26.141-55.001-55.769-89.091-55.94H104.8Z" stroke="#3D3D61" stroke-width=".5" stroke-miterlimit="10"/><path d="M172.181 456.207c-13.513-14.653-41.99-52.869-69.537-52.869-17.9 0-37.138.948-55.038 1.574-1.896.056-3.922.189-5.428 1.213-2.137 1.459-2.453 4.17-2.565 6.559a541.484 541.484 0 0 0-.353 46.291l132.921-2.768Z" stroke="#3D3D61" stroke-width=".5" stroke-miterlimit="10"/><path d="M39.279 459.904a.926.926 0 0 1-.911-.891 550.975 550.975 0 0 1 .353-46.367c.093-1.896.279-5.441 2.974-7.298 1.654-1.138 3.736-1.289 5.892-1.365 4.238-.152 8.57-.304 12.919-.474 13.996-.531 28.457-1.1 42.138-1.1 23.96 0 48.663 28.492 63.44 45.515 2.584 2.976 4.814 5.535 6.747 7.658a.988.988 0 0 1 .186 1.005c-.149.341-.465.568-.818.568l-132.902 2.768c0-.019-.018-.019-.018-.019Zm63.365-55.637c-13.643 0-28.086.55-42.064 1.081-4.368.17-8.68.341-12.937.474-1.896.056-3.68.189-4.944 1.061-1.785 1.213-2.045 3.659-2.157 5.839a541.056 541.056 0 0 0-.39 45.286l129.965-2.71c-1.617-1.801-3.401-3.868-5.409-6.161-14.554-16.777-38.922-44.87-62.064-44.87ZM149.968 475.789c-.483 0-.873-.379-.91-.872a.923.923 0 0 1 .855-.985 361.702 361.702 0 0 1 32.063-.569.923.923 0 0 1 .893.948c-.019.511-.446.948-.93.91a357.94 357.94 0 0 0-31.896.568h-.075Z" stroke="#3D3D61" stroke-width=".5" stroke-miterlimit="10"/><path d="M120.86 448.151a.278.278 0 0 1-.205-.076 889.143 889.143 0 0 0-39.499-35.088.309.309 0 0 1-.037-.436.294.294 0 0 1 .428-.038 891.161 891.161 0 0 1 39.536 35.126c.13.114.13.322.019.436-.075.038-.149.076-.242.076ZM106.789 448.151a.274.274 0 0 1-.204-.076l-40.54-35.107a.309.309 0 0 1-.037-.436.294.294 0 0 1 .427-.038l40.54 35.107c.13.114.149.303.037.436a.263.263 0 0 1-.223.114ZM115.581 550.288c-28.68 0-57.603-.455-86.191-1.365-.168 0-.298-.152-.298-.322 0-.171.149-.304.316-.304a2714.145 2714.145 0 0 0 98.645 1.346c.168 0 .298.133.298.303 0 .171-.13.304-.298.304-4.145.038-8.308.038-12.472.038ZM656.967 56.001c-13.234-.037-26.45-.094-39.684-.132-.725 0-1.506-.02-2.082-.398-.539-.36-.744-.948-.985-1.479-1.896-4.246-6.971-7.317-12.305-7.43-5.317-.115-10.577 2.729-12.752 6.9-.427.814-.78 1.743-1.617 2.293-.873.588-2.063.625-3.16.645-10.335.208-31.933.36-41.599.416-.019 2.711-.725 5.593-.446 8.341 10.539-.758 32.584-.701 43.161-.966.631-.02 1.301-.02 1.877.19.836.302 1.375.985 1.933 1.61 3.067 3.431 8.104 5.517 13.16 5.422 5.056-.095 8.086-2.123 11.004-5.668.39-.474.762-.967 1.32-1.29.669-.36 1.505-.397 2.305-.397 11.598-.209 40.038.36 40.038.36l-.168-8.417Z" stroke="#3D3D61" stroke-width=".5" stroke-miterlimit="10"/><path d="M602.134 72.323c-5.205 0-10.354-2.18-13.514-5.725l-.186-.209c-.427-.492-.836-.966-1.375-1.156-.446-.152-1.004-.152-1.562-.133-3.438.095-8.159.133-13.16.209-10.725.133-22.863.265-29.944.777a.903.903 0 0 1-.967-.834c-.186-1.744.019-3.488.186-5.194.13-1.137.241-2.218.241-3.26 0-.512.409-.93.911-.93 9.387-.056 31.283-.208 41.6-.416 1.096-.02 2.044-.076 2.676-.493.502-.342.781-.891 1.116-1.555.074-.132.13-.265.204-.398 2.323-4.474 7.918-7.525 13.588-7.393 5.669.114 11.059 3.412 13.104 7.98l.074.152c.186.418.335.759.595.93.372.246 1.078.246 1.58.246l39.666.133c.502 0 .911.416.911.91l.149 8.397c0 .246-.093.493-.26.682a.862.862 0 0 1-.67.266c-.278 0-28.569-.55-40-.36-.651.019-1.394.019-1.896.303-.335.19-.614.512-.911.891l-.13.17c-3.439 4.171-6.822 5.915-11.673 5.99-.13 0-.242.02-.353.02Zm-16.172-9.1c.539 0 1.134.039 1.71.247.967.341 1.58 1.043 2.119 1.668l.168.19c2.881 3.241 7.658 5.194 12.453 5.118 4.982-.095 7.733-2.199 10.316-5.327l.131-.151c.371-.474.799-.986 1.468-1.346.892-.474 1.896-.493 2.714-.512 10.279-.17 34.071.246 39.127.341l-.13-6.52-38.755-.133c-.744 0-1.766 0-2.584-.55-.707-.474-1.004-1.175-1.264-1.725l-.075-.152c-1.765-3.943-6.487-6.786-11.487-6.881-5-.114-9.907 2.521-11.933 6.407-.056.114-.13.247-.186.36-.39.778-.836 1.669-1.747 2.275-1.134.758-2.584.777-3.643.796-10.019.209-30.968.341-40.745.417-.055.853-.13 1.687-.223 2.522-.148 1.288-.279 2.634-.241 3.904 7.23-.455 18.848-.587 29.145-.72 5-.057 9.703-.114 13.142-.208.186-.02.353-.02.52-.02Z" stroke="#3D3D61" stroke-width=".5" stroke-miterlimit="10"/><path d="M594.197 63.755a.306.306 0 0 1-.279-.171c-2.063-4.227-.26-9.971 3.792-12.075a.303.303 0 0 1 .409.132.315.315 0 0 1-.131.418c-3.754 1.952-5.446 7.317-3.531 11.24a.315.315 0 0 1-.26.456ZM544.158 95.013l-25.93 3.773c-2.137.303-4.702-1.346-5.037-3.791l-8.829-65.191c-.446-3.355 2.732-5.535 4.888-5.839l25.466-3.393c2.137-.303 4.981 1.308 5.316 3.753l8.903 64.698c.335 2.446-1.58 5.555-4.777 5.99Z" stroke="#3D3D61" stroke-width=".5" stroke-miterlimit="10"/><path d="M517.708 99.772c-1.153 0-2.379-.418-3.383-1.195-1.134-.89-1.878-2.104-2.045-3.43l-8.829-65.192c-.52-3.905 2.955-6.502 5.669-6.9l25.484-3.393c1.394-.209 3.067.284 4.331 1.251 1.115.872 1.84 2.029 2.007 3.299l8.904 64.697c.39 2.9-1.784 6.503-5.558 7.052l-25.93 3.773c-.223.019-.427.038-.65.038Zm17.547-78.29c-.131 0-.279 0-.409.019l-25.484 3.393c-1.561.228-4.48 1.915-4.089 4.796l8.829 65.19c.111.835.595 1.631 1.338 2.2.799.606 1.784.91 2.658.796l25.93-3.772c2.621-.38 4.275-2.92 3.996-4.93l-8.903-64.697c-.112-.758-.558-1.498-1.301-2.066-.744-.588-1.71-.93-2.565-.93Z" stroke="#3D3D61" stroke-width=".5" stroke-miterlimit="10"/><path d="M511.016 42.182a.301.301 0 0 1-.297-.265 150.531 150.531 0 0 1-1.45-12.947.314.314 0 0 1 .279-.342c.148-.019.316.114.334.285.298 4.303.781 8.644 1.45 12.89a.33.33 0 0 1-.26.36c-.019.02-.037.02-.056.02ZM513.916 35.206c-.149 0-.279-.114-.298-.284l-.743-6.824a.3.3 0 0 1 .26-.342.298.298 0 0 1 .335.266l.743 6.824a.3.3 0 0 1-.26.341c-.019.02-.037.02-.037.02ZM542.56 89.668c-.149 0-.279-.114-.298-.285l-.78-7.013a.3.3 0 0 1 .26-.342.307.307 0 0 1 .334.266l.781 7.014a.3.3 0 0 1-.26.34c-.019.02-.037.02-.037.02ZM683.64 97.554l-26.041-2.844c-2.156-.246-4.22-2.483-3.959-4.947l7.23-65.4c.372-3.374 3.997-4.682 6.153-4.436l25.502 3.11c2.156.246 4.517 2.52 4.238 4.966l-7.045 64.925c-.26 2.465-2.862 4.986-6.078 4.626Z" stroke="#3D3D61" stroke-width=".5" stroke-miterlimit="10"/><path d="M684.273 98.52c-.242 0-.484-.019-.725-.037l-26.042-2.844c-1.338-.152-2.695-.948-3.606-2.123-.892-1.137-1.301-2.502-1.152-3.848l7.23-65.4c.428-3.867 4.499-5.554 7.157-5.25l25.502 3.108c1.413.152 2.9 1.043 3.885 2.313.873 1.119 1.282 2.427 1.152 3.697l-7.026 64.925c-.316 2.71-2.937 5.46-6.375 5.46Zm-17.77-77.683c-1.673 0-4.424.967-4.722 3.64l-7.23 65.4c-.093.852.186 1.724.762 2.483.632.796 1.505 1.327 2.379 1.421l26.041 2.844c2.64.303 4.852-1.744 5.075-3.791l7.026-64.926c.093-.758-.186-1.592-.762-2.313-.688-.871-1.729-1.516-2.677-1.61l-25.502-3.11c-.112-.038-.242-.038-.39-.038Z" stroke="#3D3D61" stroke-width=".5" stroke-miterlimit="10"/><path d="M665.09 34.846h-.037c-.168-.019-.279-.17-.261-.341l1.116-10.123a.297.297 0 0 1 .334-.265.3.3 0 0 1 .26.341l-1.115 10.123a.302.302 0 0 1-.297.265ZM311.886 648.197c6.859 14.464 10.725 23.165 10.261 26.766-.261 2.105-3.179 8.872-10.54 9.194-7.844.342-10.427-7.317-10.204-10.312.316-4.019 7.286-19.771 10.483-25.648Z" stroke="#3D3D61" stroke-width=".5" stroke-miterlimit="10"/><path d="M311.105 685.105c-2.936 0-5.502-1.08-7.416-3.128-2.342-2.483-3.383-6.009-3.197-8.208.353-4.435 7.621-20.548 10.595-26.027.167-.303.483-.512.818-.474.334.019.65.209.799.531 7.528 15.886 10.818 23.601 10.335 27.297-.335 2.559-3.643 9.668-11.413 10.009h-.521Zm.744-34.842c-3.383 6.654-9.257 20.151-9.536 23.677-.111 1.497.632 4.587 2.696 6.767 1.691 1.801 3.903 2.654 6.543 2.54 7.156-.303 9.516-7.07 9.684-8.378.427-3.356-3.755-12.663-9.387-24.606ZM191.326 612.389l49.908 34.671c14.276-7.867 55.893-13.8 58.44-13.592 3.55.284 8.104 2.389 10.539 3.223-.241-4.095.075-3.962-.613-8.512-6.023-4.094-10.893-5.364-48.551-12.056l-2.51-14.577-41.171-26.71-26.042 37.553Z" stroke="#3D3D61" stroke-width=".5" stroke-miterlimit="10"/><path d="M241.234 647.988a.894.894 0 0 1-.52-.17l-49.908-34.671c-.205-.133-.335-.36-.391-.607a1.032 1.032 0 0 1 .149-.701l26.06-37.534a.917.917 0 0 1 1.245-.246l41.172 26.709c.223.133.372.36.409.626l2.398 13.933c36.618 6.502 42.083 7.886 48.272 12.075a.982.982 0 0 1 .391.625c.464 3.033.483 4.038.52 5.536.019.777.037 1.668.112 3.071a.946.946 0 0 1-.354.796.922.922 0 0 1-.855.151c-.594-.208-1.282-.474-2.081-.777-2.38-.929-5.651-2.199-8.235-2.407-2.249-.171-43.7 5.63-57.938 13.478a.98.98 0 0 1-.446.113Zm-48.625-35.827 48.681 33.818c14.926-7.848 56.172-13.63 58.458-13.44 2.844.227 6.246 1.554 8.737 2.521.26.095.501.19.743.285-.037-.702-.037-1.252-.056-1.725-.018-1.365-.037-2.275-.427-4.872-5.818-3.867-11.71-5.27-47.864-11.677a.965.965 0 0 1-.743-.759l-2.435-14.179-40.094-26.008-25 36.036Z" stroke="#3D3D61" stroke-width=".5" stroke-miterlimit="10"/><path d="M198.501 602.095a.918.918 0 0 1-.874-.663l-6.914-23.487c-1.45-4.91-3.086-10.483-1.971-16.018 1.116-5.478 5.837-10.862 11.822-10.445 6.19.455 9.833 6.729 11.469 10.445a50.739 50.739 0 0 1 4.07 15.544.93.93 0 0 1-.817 1.024c-.502.057-.948-.323-1.004-.834a48.682 48.682 0 0 0-3.922-14.976c-1.469-3.317-4.684-8.947-9.926-9.345-4.926-.361-8.978 4.36-9.907 8.947-1.023 5.061.539 10.388 1.933 15.089l6.915 23.487a.93.93 0 0 1-.614 1.156.419.419 0 0 1-.26.076ZM239.784 590.267a.886.886 0 0 1-.483-.133.935.935 0 0 1-.298-1.289c1.58-2.654 3.29-5.27 5.056-7.791a.91.91 0 0 1 1.283-.209.95.95 0 0 1 .204 1.308 122.566 122.566 0 0 0-4.981 7.678.892.892 0 0 1-.781.436Z" stroke="#3D3D61" stroke-width=".5" stroke-miterlimit="10"/><path d="M254.245 588.049a.858.858 0 0 1-.52-.171 212.717 212.717 0 0 0-18.086-11.525c-.446-.247-.595-.815-.353-1.27a.904.904 0 0 1 1.245-.361 211.606 211.606 0 0 1 18.253 11.621c.409.303.521.872.224 1.289a.911.911 0 0 1-.763.417ZM253.521 607.972a.537.537 0 0 1-.168-.038 1612.048 1612.048 0 0 1-25.707-16.549.315.315 0 0 1-.093-.436.3.3 0 0 1 .428-.095 1603.43 1603.43 0 0 0 25.688 16.549.313.313 0 0 1 .093.436c-.037.076-.149.133-.241.133ZM253.242 615.118a.292.292 0 0 1-.167-.057l-5.893-3.924a.313.313 0 0 1-.093-.435.3.3 0 0 1 .428-.095l5.892 3.924a.313.313 0 0 1 .093.436c-.074.094-.167.151-.26.151ZM277.499 369.729c-6.431 7.127-11.971 15.449-16.878 23.714-.52.872-1.078 1.801-1.933 2.313-1.598.947-3.643.17-4.926-1.1-1.282-1.27-2.323-3.507-3.55-4.815-3.104-3.317-6.022-.379-8.439-5.895-.316-.721-1.041-3.583-1.524-4.208-1.189-1.555-4.833-1.688-6.543-2.616-2.305-1.252-2.509-4.626-4.424-6.427-1.078-1.023-2.565-1.061-3.903-1.706-2.212-1.08-2.621-2.293-2.491-3.81.13-1.573 1.617-2.654 2.956-3.507 8.364-5.459 15.967-12.151 22.509-19.79l29.146 27.847Z" stroke="#3D3D61" stroke-width=".5" stroke-miterlimit="10"/><path d="M257.127 397.102c-1.506 0-2.993-.778-4.015-1.782-.744-.74-1.376-1.725-2.008-2.673-.539-.815-1.041-1.611-1.58-2.161-1.115-1.194-2.193-1.441-3.327-1.687-1.729-.398-3.699-.853-5.279-4.455-.13-.303-.297-.834-.502-1.517-.241-.777-.687-2.198-.892-2.502-.539-.701-2.082-1.099-3.457-1.44-1.041-.266-2.026-.512-2.788-.929-1.562-.834-2.268-2.37-2.956-3.867-.483-1.043-.948-2.029-1.654-2.692-.521-.493-1.208-.702-2.008-.948-.539-.171-1.115-.341-1.672-.607-2.287-1.118-3.179-2.54-3.012-4.739.168-1.971 1.822-3.222 3.365-4.227a104.65 104.65 0 0 0 22.324-19.62.942.942 0 0 1 .65-.322.898.898 0 0 1 .669.246l29.127 27.847a.94.94 0 0 1 .056 1.308c-5.502 6.085-10.818 13.573-16.766 23.563-.558.929-1.19 2.009-2.268 2.635a3.719 3.719 0 0 1-2.007.569Zm-8.699-53.893c-6.469 7.412-13.885 13.895-22.083 19.24-1.171.759-2.435 1.688-2.527 2.806-.075 1.024 0 1.933 1.97 2.9.427.209.911.36 1.412.512.93.284 1.896.569 2.733 1.365.966.91 1.524 2.123 2.063 3.279.595 1.27 1.134 2.465 2.156 3.014.558.304 1.432.531 2.38.759 1.747.436 3.531.891 4.461 2.104.371.493.706 1.535 1.189 3.071.167.55.353 1.118.446 1.327 1.209 2.767 2.38 3.033 4.015 3.412 1.301.303 2.751.625 4.257 2.218.65.682 1.208 1.573 1.766 2.426.557.872 1.152 1.763 1.747 2.37.985.966 2.602 1.687 3.829.966.669-.398 1.152-1.213 1.617-1.99 5.781-9.725 11.004-17.118 16.376-23.165l-27.807-26.614Z" stroke="#3D3D61" stroke-width=".5" stroke-miterlimit="10"/><path d="m275.677 326.982-15.186-1.63-14.666 19.392 30.261 26.596 16.859-17.326s-3.643-9.687-3.866-14.786c-.186-3.981 1.71-7.677 4.591-10.616 9.944-10.103 31.99-32.642 32.937-34.462 2.603-4.967-.799-8.436-2.825-10.255-2.435-2.18-5.558-2.711-7.361-1.991-1.58.626-2.788 1.99-3.903 3.317-4.368 5.176-19.591 26.16-27.119 35.904-3.198 4.132-4.778 4.966-9.722 5.857Z" stroke="#3D3D61" stroke-width=".5" stroke-miterlimit="10"/><path d="M276.068 372.269a.899.899 0 0 1-.595-.228l-30.243-26.595a.936.936 0 0 1-.13-1.27l14.666-19.393c.186-.265.502-.379.818-.36l15.056 1.611c4.777-.872 6.06-1.668 8.996-5.478 3.16-4.095 7.752-10.274 12.213-16.246 6.375-8.568 12.398-16.662 14.944-19.676 1.264-1.498 2.528-2.882 4.257-3.583 2.026-.815 5.52-.341 8.308 2.161 1.525 1.346 6.116 5.478 3.03 11.393-1.059 2.009-23.495 24.927-33.086 34.671-2.937 2.995-4.48 6.502-4.331 9.914.223 4.891 3.773 14.388 3.811 14.483.13.341.055.739-.205.985l-16.859 17.327a.865.865 0 0 1-.65.284Zm-28.997-27.657 28.941 25.458 15.837-16.284c-.8-2.18-3.514-9.971-3.718-14.501-.186-3.924 1.543-7.943 4.87-11.317 15.707-15.961 31.934-32.738 32.77-34.235 2.138-4.076-.279-7.014-2.621-9.099-2.212-1.972-4.963-2.408-6.431-1.82-1.338.531-2.435 1.763-3.55 3.071-2.51 2.976-8.792 11.412-14.871 19.582-4.442 5.99-9.052 12.17-12.23 16.283-3.402 4.398-5.223 5.27-10.242 6.18-.074.019-.167.019-.26.019l-14.685-1.573-13.81 18.236ZM249.692 389.557c-.056 0-.13-.019-.167-.057a.326.326 0 0 1-.075-.436 176.23 176.23 0 0 1 11.896-15.506.295.295 0 0 1 .428-.038c.13.114.149.303.037.436a179.04 179.04 0 0 0-11.859 15.449c-.074.114-.167.152-.26.152ZM244.208 386.865a.276.276 0 0 1-.204-.076c-.13-.113-.13-.303-.019-.436a95.696 95.696 0 0 0 6.134-7.677.316.316 0 0 1 .428-.076.33.33 0 0 1 .074.436 97.884 97.884 0 0 1-6.171 7.734.43.43 0 0 1-.242.095ZM230.008 371.226a.277.277 0 0 1-.205-.076c-.13-.114-.13-.303-.019-.436a481.185 481.185 0 0 0 8.123-9.364.295.295 0 0 1 .428-.038c.13.114.149.303.037.436a546.137 546.137 0 0 1-8.123 9.383.386.386 0 0 1-.241.095ZM253.744 394.277a.298.298 0 0 1-.168-.057.314.314 0 0 1-.092-.436l4.442-6.995a.301.301 0 0 1 .428-.094.314.314 0 0 1 .092.436l-4.442 6.994a.319.319 0 0 1-.26.152Z" stroke="#3D3D61" stroke-width=".5" stroke-miterlimit="10"/><path d="M278.466 363.833a.277.277 0 0 1-.205-.076 1285.81 1285.81 0 0 1-7.658-6.691l-17.268-15.146a.309.309 0 0 1-.037-.436.294.294 0 0 1 .427-.038l17.268 15.146c2.547 2.237 5.093 4.473 7.658 6.691a.309.309 0 0 1 .038.436.263.263 0 0 1-.223.114ZM762.322 648.633c-12.342-25.762-28.049-52.566-40.744-76.678-.874-1.668-1.821-3.393-3.327-4.417-2.249-1.498-5.279-1.858-7.528-.341-2.231 1.516-3.978 4.663-5.409 7.052-14.592 24.453-31.321 54.101-41.302 73.493-4.405 8.568 1.431 13.63 6.004 13.118 5.465-.607 60.651.246 79.462-.227 2.324-.057 4.666-.114 6.989-.323 1.264-.114 2.603-.284 3.643-1.08 2.659-2.048 3.718-7.488 2.212-10.597Zm-18.996-.322c-.669.531-1.524.644-2.361.72-1.505.133-3.011.171-4.517.209-12.156.322-47.826-.266-51.358.151-2.955.342-6.728-3.033-3.884-8.757 6.449-12.948 17.249-32.738 26.673-49.059.929-1.593 2.045-3.697 3.494-4.702 1.45-1.023 3.402-.777 4.852.228.985.682 1.58 1.839 2.156 2.938 8.216 16.094 18.365 33.989 26.339 51.182.985 2.104.316 5.725-1.394 7.09Z" stroke="#3D3D61" stroke-width=".5" stroke-miterlimit="10"/><path d="M669.347 661.846c-2.491 0-4.945-1.327-6.413-3.526-1.134-1.706-2.602-5.384.279-10.995 9.665-18.804 26.283-48.357 41.32-73.55l.335-.569c1.394-2.332 3.104-5.251 5.353-6.767 2.379-1.612 5.799-1.479 8.532.322 1.747 1.156 2.788 3.147 3.643 4.758 4.48 8.511 9.238 17.174 14.294 26.368 9.089 16.549 18.476 33.648 26.488 50.348 1.71 3.564.464 9.497-2.473 11.772-1.226.948-2.769 1.156-4.108 1.27-2.379.209-4.758.265-7.044.322-9.183.228-26.618.152-43.477.076-17.045-.076-33.16-.151-35.911.152-.298 0-.558.019-.818.019Zm44.703-94.687c-1.022 0-2.007.265-2.825.815-1.896 1.289-3.495 4-4.796 6.18l-.353.587c-15.019 25.174-31.599 54.689-41.265 73.437-1.803 3.507-1.933 6.73-.371 9.08 1.226 1.839 3.42 2.92 5.483 2.673 2.844-.322 18.272-.246 36.116-.17 16.84.075 34.276.151 43.421-.076 2.267-.057 4.61-.114 6.933-.323 1.134-.094 2.323-.246 3.16-.89 2.249-1.726 3.271-6.673 1.933-9.46-7.974-16.643-17.361-33.723-26.432-50.253-5.056-9.194-9.814-17.876-14.294-26.387-.78-1.479-1.673-3.166-3.029-4.076-1.153-.739-2.454-1.137-3.681-1.137Zm-29.368 83.199c-1.673 0-3.346-.91-4.35-2.388-.818-1.195-1.877-3.792.093-7.734 6.245-12.55 16.989-32.283 26.711-49.097l.223-.379c.91-1.593 2.044-3.564 3.55-4.626 1.654-1.156 4.015-1.061 5.892.228 1.19.815 1.896 2.18 2.454 3.279 2.899 5.668 5.966 11.469 9.238 17.592 5.874 11.051 11.952 22.463 17.119 33.628 1.171 2.54.335 6.597-1.691 8.208-.874.683-1.915.834-2.826.91-1.542.133-3.085.171-4.572.209-5.948.151-17.213.094-28.124.056-11.003-.056-21.394-.113-23.141.095-.223.019-.409.019-.576.019Zm28.848-63.181c-.558 0-1.116.151-1.617.493-1.171.815-2.194 2.597-3.012 4.018l-.223.38c-9.702 16.795-20.409 36.49-26.654 49.002-1.134 2.293-1.209 4.36-.205 5.838.725 1.081 2.008 1.706 3.179 1.574 1.858-.209 11.821-.171 23.364-.114 10.893.057 22.157.114 28.068-.038 1.468-.038 2.974-.076 4.461-.209.688-.056 1.394-.151 1.877-.53 1.339-1.062 1.952-4.228 1.171-5.953-5.149-11.108-11.208-22.501-17.082-33.533-3.271-6.142-6.338-11.924-9.238-17.611-.483-.967-1.041-2.047-1.859-2.597-.632-.436-1.431-.72-2.23-.72Z" stroke="#3D3D61" stroke-width=".5" stroke-miterlimit="10"/><path d="M785.501 658.642c-18.104-36.851-41.134-75.2-59.759-109.7-1.283-2.389-2.658-4.872-4.889-6.313-3.308-2.142-7.751-2.654-11.022-.474-3.29 2.18-5.837 6.654-7.937 10.085-21.413 34.993-45.931 77.437-60.578 105.17-6.468 12.264 2.101 19.506 8.811 18.766 8.011-.872 88.942.361 116.545-.341 3.42-.095 6.84-.17 10.26-.455 1.859-.151 3.811-.398 5.335-1.554 3.903-2.938 5.428-10.71 3.234-15.184Zm-27.863-.436c-.985.758-2.249.929-3.457 1.023-2.212.19-4.424.247-6.617.304-17.844.455-70.132-.36-75.318.227-4.331.493-9.87-4.341-5.688-12.53 9.462-18.52 25.298-46.841 39.128-70.195 1.356-2.294 3.011-5.27 5.13-6.73 2.119-1.459 5-1.118 7.137.323 1.432.966 2.324 2.616 3.16 4.208 12.045 23.032 26.915 48.623 38.626 73.228 1.412 2.995.427 8.189-2.101 10.142Z" stroke="#3D3D61" stroke-width=".5" stroke-miterlimit="10"/><path d="M649.179 677.162c-3.569 0-7.156-1.933-9.201-5.023-1.543-2.351-3.532-7.45.539-15.165 14.182-26.88 38.532-69.172 60.596-105.227l.502-.815c2.007-3.317 4.517-7.431 7.714-9.554 3.346-2.218 8.178-2.028 12.026.474 2.472 1.611 3.978 4.398 5.205 6.654 6.58 12.17 13.55 24.586 20.948 37.723 13.327 23.676 27.101 48.149 38.83 72.015 2.435 4.966.669 13.212-3.513 16.34-1.71 1.289-3.811 1.555-5.8 1.725-3.476.284-6.952.379-10.297.455-13.458.341-39.035.228-63.775.114-25.019-.114-48.644-.209-52.696.227-.39.038-.725.057-1.078.057Zm65.522-135.481c-1.599 0-3.123.417-4.387 1.251-2.863 1.896-5.242 5.82-7.156 8.967l-.502.834c-22.045 36.017-46.377 78.271-60.54 105.113-2.677 5.08-2.9 9.781-.632 13.25 1.877 2.844 5.297 4.493 8.531 4.152 4.145-.455 26.748-.361 52.901-.228 24.722.114 50.28.228 63.719-.114 3.327-.075 6.784-.17 10.204-.455 1.729-.151 3.532-.379 4.87-1.364 3.495-2.616 5.019-9.82 2.974-14.009-11.71-23.828-25.465-48.282-38.774-71.92-7.398-13.137-14.387-25.554-20.967-37.743-1.171-2.161-2.49-4.625-4.572-5.971-1.766-1.175-3.773-1.763-5.669-1.763Zm-43.087 119.046c-2.36 0-4.702-1.27-6.097-3.355-1.096-1.63-2.527-5.175.224-10.559 9.163-17.952 24.907-46.178 39.164-70.233l.316-.55c1.32-2.237 2.955-5.023 5.074-6.464 2.268-1.554 5.539-1.422 8.142.322 1.673 1.119 2.658 3.014 3.457 4.55 4.238 8.113 8.755 16.397 13.532 25.174 8.606 15.809 17.51 32.15 25.093 48.092 1.636 3.431.428 9.118-2.36 11.279-1.171.91-2.64 1.099-3.922 1.213-2.268.19-4.499.247-6.673.304-8.718.227-25.242.151-41.228.075-16.153-.075-31.413-.151-33.997.152h-.725Zm42.362-90.403c-.967 0-1.896.266-2.64.778-1.784 1.213-3.308 3.81-4.535 5.876l-.335.55c-14.238 24.036-29.963 52.224-39.108 70.138-1.71 3.355-1.841 6.426-.353 8.644 1.152 1.725 3.215 2.73 5.13 2.521 2.695-.303 17.305-.227 34.22-.151 15.967.076 32.491.151 41.172-.076 2.137-.057 4.368-.114 6.58-.303 1.078-.095 2.193-.228 2.974-.853 2.119-1.65 3.085-6.351 1.821-8.986-7.565-15.885-16.45-32.207-25.056-47.997-4.777-8.777-9.294-17.061-13.551-25.193-.743-1.422-1.579-3.014-2.862-3.867-1.078-.721-2.305-1.081-3.457-1.081Z" stroke="#3D3D61" stroke-width=".5" stroke-miterlimit="10"/><path d="M644.086 668.423a.27.27 0 0 1-.242-.132.33.33 0 0 1 .074-.436l17.38-12.227a.316.316 0 0 1 .428.076.332.332 0 0 1-.075.436l-17.379 12.227a.354.354 0 0 1-.186.056ZM727.638 352.27l-67.808-.815a.922.922 0 0 1-.911-.929c0-35.069-13.067-60.964-38.867-77.001-23.829-14.805-50.15-15.942-57.64-15.942-26.153 0-52.251 11.165-73.515 31.449-18.904 18.027-31.041 41.135-31.692 60.319a.907.907 0 0 1-.874.891c-11.896.53-121.749-.455-122.846-.474-.502 0-.911-.417-.911-.948 0-.512.409-.929.911-.929 1.078.019 106.508.967 121.917.512.985-19.487 13.272-42.671 32.231-60.755 21.599-20.606 48.142-31.942 74.76-31.942 7.621 0 34.369 1.176 58.588 16.227 11.915 7.412 21.321 17.08 27.938 28.738 7.714 13.61 11.692 30.065 11.803 48.926l66.897.815c.502 0 .911.436.911.948a.89.89 0 0 1-.892.91ZM595.312 200.998a.91.91 0 0 1-.706-.341l-51.581-63.959a.943.943 0 0 1 .13-1.308.9.9 0 0 1 1.282.133l50.782 62.992 42.101-64.433a.897.897 0 0 1 1.264-.265.936.936 0 0 1 .26 1.289l-42.789 65.475a.932.932 0 0 1-.706.417h-.037Z" stroke="#3D3D61" stroke-width=".5" stroke-miterlimit="10"/><path d="M595.107 200.448c-.483 0-.892-.398-.911-.909l-2.435-79.143a.928.928 0 0 1 .893-.967.925.925 0 0 1 .948.91l2.435 79.143a.926.926 0 0 1-.893.966h-.037ZM555.404 199.33l-23.328-.114a.921.921 0 0 1-.91-.928c0-.512.427-.929.91-.929l23.328.113c.502 0 .911.417.911.929a.922.922 0 0 1-.911.929Z" stroke="#3D3D61" stroke-width=".5" stroke-miterlimit="10"/><path d="M543.749 212.05a.921.921 0 0 1-.91-.929c0-2.256-.112-5.403-.242-9.061-.167-5.024-.372-10.729-.316-15.525 0-.512.409-.929.911-.929s.911.417.911.948c-.038 4.758.148 10.426.316 15.449.13 3.677.241 6.862.241 9.137 0 .493-.409.91-.911.91ZM639.513 200.069a.921.921 0 0 1-.911-.928c0-.512.409-.929.911-.929 2.026 0 4.852-.114 8.16-.266 4.517-.189 9.666-.398 13.978-.36.502 0 .911.436.911.948a.922.922 0 0 1-.911.929h-.018c-4.276-.057-9.369.17-13.867.36-3.327.114-6.19.246-8.253.246ZM574.456 173.834a.938.938 0 0 1-.706-1.535c5.019-6.067 12.156-9.668 19.573-9.915.502-.038.929.379.948.91a.927.927 0 0 1-.892.967c-6.803.209-13.625 3.678-18.235 9.251a.886.886 0 0 1-.688.322ZM398.951 265.014c-1.171 3.829-2.342 7.734-2.546 11.658-.205 3.924.669 7.867 5.204 10.957 4.703 3.204 12.324-.569 14.815-6.957 5.409-13.895 19.238-52.225 29.257-81.095-7.175-2.957-14.647-5.024-21.822-7.981-1.078 2.863-18.235 51.448-24.908 73.418Z" stroke="#3D3D61" stroke-width=".5" stroke-miterlimit="10"/><path d="M405.55 289.733c-1.636 0-3.16-.436-4.443-1.327-5.409-3.677-5.799-8.492-5.613-11.791.223-4.075 1.412-8.037 2.583-11.885 6.785-22.35 23.886-70.745 24.927-73.456a.923.923 0 0 1 .483-.512.91.91 0 0 1 .706 0c3.569 1.46 7.268 2.749 10.874 3.981 3.606 1.232 7.342 2.521 10.967 4a.94.94 0 0 1 .52 1.175c-9.888 28.491-23.829 67.143-29.257 81.114-1.487 3.848-4.795 6.995-8.625 8.208-1.078.322-2.119.493-3.122.493Zm-5.725-24.454c-1.134 3.735-2.305 7.583-2.51 11.431-.241 4.587 1.246 7.715 4.815 10.142 1.598 1.099 3.736 1.308 5.985.587 3.253-1.042 6.19-3.829 7.454-7.108 5.371-13.82 19.089-51.827 28.941-80.205-3.309-1.326-6.729-2.502-10.038-3.639-3.327-1.138-6.747-2.313-10.093-3.659-2.602 7.204-18.16 51.391-24.554 72.451Z" stroke="#3D3D61" stroke-width=".5" stroke-miterlimit="10"/><path d="M450.328 154.745c-8.867-3.223-29.35-6.786-35.707 3.715-6.246 10.294-7.473 40.794-7.324 42.538.242 2.711 2.417 3.621 3.16 3.887 10.242 3.715 39.908 13.781 39.908 13.781 1.617.531 3.476-.493 4.61-1.972 1.784-2.312 15.019-22.747 18.941-34.045 2.49-7.128-4.22-20.89-23.588-27.904Zm-27.696 10.388c5.186-4.587 12.435-4.379 18.774-3.222 4.851.89 9.665 2.217 13.885 4.814 4.219 2.597 7.788 6.616 9.312 11.678l-41.971-13.27Z" stroke="#3D3D61" stroke-width=".5" stroke-miterlimit="10"/><path d="M451.276 219.727c-.391 0-.781-.057-1.19-.189-.316-.114-29.796-10.123-39.926-13.8-2.231-.816-3.569-2.465-3.774-4.683-.13-1.383 1.041-32.529 7.454-43.106 7.063-11.659 29.499-6.73 36.785-4.095 19.87 7.203 26.785 21.516 24.146 29.079-4.09 11.772-17.584 32.34-19.09 34.311-1.004 1.346-2.677 2.483-4.405 2.483Zm-19.629-67.314c-6.822 0-13.272 1.631-16.246 6.521-6.208 10.237-7.305 40.605-7.193 41.951.13 1.497.985 2.54 2.565 3.09 10.112 3.658 39.592 13.686 39.889 13.781 1.283.417 2.77-.569 3.606-1.668 2.026-2.635 15.019-22.881 18.811-33.78 2.379-6.844-4.312-19.924-23.049-26.71-4.368-1.554-11.543-3.185-18.383-3.185Zm32.937 26.918c-.092 0-.185-.019-.278-.038l-41.953-13.288a.926.926 0 0 1-.632-.701.897.897 0 0 1 .298-.891c5.873-5.194 13.959-4.455 19.517-3.431 6.096 1.118 10.483 2.635 14.182 4.928 4.796 2.976 8.253 7.298 9.703 12.208a.953.953 0 0 1-.223.929.761.761 0 0 1-.614.284Zm-39.982-14.558 38.495 12.189c-1.561-3.754-4.461-7.052-8.29-9.44-3.513-2.18-7.695-3.621-13.569-4.702-7.36-1.345-12.714-.72-16.636 1.953ZM410.197 264.957c-.037 0-.074 0-.093-.019-.167-.057-.242-.227-.186-.398l17.287-50.5c.055-.17.223-.246.39-.189.167.057.242.227.186.398l-17.287 50.481c-.055.132-.167.227-.297.227ZM426.926 233.395c-.037 0-.075 0-.112-.019-.148-.057-.241-.247-.186-.398l6.134-16.909c.056-.152.242-.247.391-.19.148.057.241.247.186.398l-6.134 16.909a.28.28 0 0 1-.279.209Z" stroke="#3D3D61" stroke-width=".5" stroke-miterlimit="10"/><path d="M448.58 166.195a.922.922 0 0 1-.911-.929c-.018-1.346-.018-2.408-.018-3.298 0-3.204 0-4.398-.428-9.137-.037-.512.335-.967.837-1.005a.92.92 0 0 1 .985.853c.427 4.834.427 6.047.427 9.307 0 .891 0 1.953.019 3.299.019.493-.39.91-.911.91Zm0 0c.019 0 .019 0 0 0ZM376.144 56.817l-81.47-31.506c-3.049-1.175-6.339.095-7.119 2.18l-.688 1.877a170.714 170.714 0 0 0-26.822-8.379c-2.193-.493-4.591-.91-6.617.095-2.435 1.213-3.569 4.568-2.417 7.07.985 2.124 3.179 3.3 5.261 4.323a249.196 249.196 0 0 0 25.502 10.748l-11.041 29.913c-1.153 3.109 1.487 6.673 4.535 7.848l80.913 31.145c3.048 1.175 6.45-.36 7.212-2.445l17.063-45.003c.762-2.085-.111-6.236-4.312-7.866Z" stroke="#3D3D61" stroke-width=".5" stroke-miterlimit="10"/><path d="M358.393 113.477a6.907 6.907 0 0 1-2.547-.474l-80.912-31.145c-3.476-1.346-6.432-5.403-5.075-9.061l10.707-29.022a250.242 250.242 0 0 1-24.703-10.464c-2.268-1.119-4.591-2.389-5.688-4.758-1.376-2.977-.056-6.844 2.825-8.303 2.268-1.138 4.814-.72 7.212-.17a170.35 170.35 0 0 1 26.097 8.075l.372-.986c.409-1.1 1.32-2.029 2.584-2.597 1.747-.796 3.829-.853 5.706-.114l81.47 31.506c4.61 1.781 5.8 6.483 4.852 9.06l-17.064 45.003c-.427 1.137-1.45 2.161-2.825 2.787a7.256 7.256 0 0 1-3.011.663Zm-102.084-92.07c-.892 0-1.729.132-2.491.53-1.989 1.005-2.937 3.772-1.989 5.82.837 1.8 2.844 2.9 4.833 3.867 8.197 4 16.748 7.601 25.409 10.71a.897.897 0 0 1 .521.493.887.887 0 0 1 .018.72L271.569 73.46c-.948 2.56 1.339 5.63 4.015 6.654l80.913 31.145a5.38 5.38 0 0 0 4.163-.152c.911-.417 1.617-1.08 1.878-1.762l17.063-45.003c.558-1.535.019-5.175-3.792-6.654l-81.47-31.505c-1.412-.55-3.011-.512-4.312.076-.818.38-1.413.948-1.636 1.554l-.687 1.877a1.028 1.028 0 0 1-.484.53.913.913 0 0 1-.706.02 168.856 168.856 0 0 0-26.692-8.322c-1.171-.284-2.379-.512-3.513-.512Z" stroke="#3D3D61" stroke-width=".5" stroke-miterlimit="10"/><path d="m288.02 68.456 9.758-26.444c.446-1.213 2.547-1.877 4.536-1.1L355.549 61.5c2.751 1.061 3.42 3.526 2.974 4.739l-9.907 26.065c-.447 1.213-2.603 2.028-4.592 1.27l-52.882-20.378c-1.989-.777-3.792-2.938-3.122-4.74Z" stroke="#3D3D61" stroke-width=".5" stroke-miterlimit="10"/><path d="M345.641 94.786c-.65 0-1.319-.114-1.933-.36l-52.882-20.36c-2.472-.947-4.517-3.563-3.643-5.932l9.759-26.444c.241-.683.817-1.252 1.598-1.612 1.19-.55 2.733-.568 4.108-.038l53.235 20.587c3.253 1.251 4.127 4.246 3.495 5.933l-9.908 26.084c-.26.701-.873 1.308-1.728 1.706a5.286 5.286 0 0 1-2.101.436Zm-56.767-26.008c-.446 1.232 1.041 2.938 2.584 3.545l52.882 20.359c.874.341 1.859.322 2.64-.038.464-.208.706-.493.78-.682l9.908-26.084c.241-.664-.112-2.635-2.435-3.526l-53.236-20.587c-1.096-.417-2.119-.284-2.713-.019-.335.152-.577.36-.651.57l-9.759 26.462ZM358.504 98.672a.41.41 0 0 0-.316.19c-.074.114-.093.246-.037.34.037.096.149.172.242.172.055 0 .13-.02.204-.076.074-.057.112-.133.112-.19a.544.544 0 0 0-.205-.436Zm0 0c.019 0 0 0 0 0Zm-.093 2.578h-.13a2.126 2.126 0 0 1-1.784-1.27 2.268 2.268 0 0 1 .186-2.123c.501-.796 1.449-1.194 2.323-.967.911.228 1.617 1.308 1.543 2.37a2.245 2.245 0 0 1-.725 1.478c-.409.304-.911.512-1.413.512ZM369.843 68.93a.408.408 0 0 0-.316.19.36.36 0 0 0-.037.36c.037.094.148.17.241.17.056 0 .13-.019.205-.076.074-.057.111-.132.111-.19a.553.553 0 0 0-.204-.454Zm0 0c.018 0 0 0 0 0Zm-.093 2.578h-.13a2.126 2.126 0 0 1-1.785-1.27 2.27 2.27 0 0 1 .186-2.123c.502-.797 1.45-1.195 2.324-.967.91.227 1.617 1.308 1.542 2.37a2.245 2.245 0 0 1-.724 1.478c-.409.303-.911.512-1.413.512ZM364.21 86.294h-.13a2.15 2.15 0 0 1-1.784-1.27 2.27 2.27 0 0 1 .186-2.124c.502-.796 1.45-1.194 2.323-.966.911.227 1.617 1.308 1.543 2.37a2.241 2.241 0 0 1-.725 1.478c-.427.322-.929.512-1.413.512Zm.093-2.578a.41.41 0 0 0-.316.19c-.074.113-.093.246-.037.34.037.095.149.171.242.171a.34.34 0 0 0 .204-.076c.075-.057.112-.133.112-.19a.685.685 0 0 0-.205-.435Z" stroke="#3D3D61" stroke-width=".5" stroke-miterlimit="10"/><path d="M323.132 57.385a.34.34 0 0 1-.13-.038 81.012 81.012 0 0 0-16.599-6.009c-.168-.038-.26-.208-.223-.379a.303.303 0 0 1 .371-.227 83.285 83.285 0 0 1 16.711 6.066c.149.076.223.265.149.417a.307.307 0 0 1-.279.17ZM311.273 59.85c-.037 0-.075 0-.093-.02l-7.342-2.615c-.168-.057-.242-.228-.186-.398a.295.295 0 0 1 .39-.19l7.342 2.616c.168.057.242.228.186.398a.319.319 0 0 1-.297.209ZM314.377 74.939c-.037 0-.075 0-.093-.019l-15.242-5.384c-.167-.056-.242-.227-.186-.398a.295.295 0 0 1 .39-.19l15.242 5.384c.168.057.242.228.186.398a.319.319 0 0 1-.297.209ZM378.969 82.768c-1.803 0-3.42-.645-4.926-1.365a.943.943 0 0 1-.446-1.232.91.91 0 0 1 1.209-.455c1.542.74 3.215 1.384 5 1.118 1.691-.246 3.922-1.914 4.572-3.43.8-1.802-.018-3.773-.557-4.778-1.134-2.085-3.16-3.829-4.703-4.038a.918.918 0 0 1-.781-1.042c.075-.512.539-.872 1.023-.796 2.119.303 4.609 2.35 6.041 4.985 1.245 2.275 1.468 4.569.632 6.445-.93 2.104-3.662 4.17-5.986 4.512a9.62 9.62 0 0 1-1.078.076Z" stroke="#3D3D61" stroke-width=".5" stroke-miterlimit="10"/><path d="M448.227 154.119a.902.902 0 0 1-.892-.758c-1.524-8.151-3.309-16.776-6.785-24.605-9.795-22.122-30.651-35.448-54.889-49.362-.446-.247-.595-.816-.353-1.27a.903.903 0 0 1 1.245-.36c24.536 14.084 45.652 27.6 55.67 50.234 3.551 8.037 5.354 16.776 6.915 25.022a.94.94 0 0 1-.725 1.099h-.186ZM67.402 690.28c-8.55-8.416-17.975-16.89-25.893-25.913l-6.915 7.715 25.596 25.989 7.212-7.791Z" stroke="#3D3D61" stroke-width=".5" stroke-miterlimit="10"/><path d="M60.19 699a.955.955 0 0 1-.65-.265l-25.596-25.99a.954.954 0 0 1-.037-1.289l6.914-7.715a.894.894 0 0 1 1.339 0c5.632 6.426 12.1 12.625 18.364 18.634a916.906 916.906 0 0 1 7.491 7.241c.353.361.372.948.037 1.308l-7.23 7.792c-.149.17-.372.265-.632.284Zm-24.332-26.956 24.313 24.681 5.967-6.407a563.693 563.693 0 0 0-6.822-6.578c-6.04-5.801-12.286-11.772-17.807-17.99l-5.65 6.294Z" stroke="#3D3D61" stroke-width=".5" stroke-miterlimit="10"/><path d="M50.227 659.703S30.375 680.802 29.11 681.2c-4.07-6.18-3.216-15.222 1.915-20.492 5.13-5.289 14.015-6.199 19.2-1.005Z" stroke="#3D3D61" stroke-width=".5" stroke-miterlimit="10"/><path d="M29.093 682.129a.908.908 0 0 1-.762-.417c-4.331-6.559-3.42-16.075 2.026-21.686 5.762-5.896 15.13-6.369 20.483-1.005.353.36.372.948.019 1.308-7.473 7.943-20.205 21.326-21.506 21.743-.075.057-.168.057-.26.057Zm12.398-24.984c-3.495 0-7.12 1.421-9.833 4.208-4.647 4.758-5.577 12.701-2.324 18.501 2.788-2.483 12.844-12.985 19.555-20.094-2.045-1.744-4.685-2.615-7.398-2.615ZM42.086 676.556a.297.297 0 0 1-.242-.114c-.112-.133-.075-.322.056-.436a26.144 26.144 0 0 0 3.773-3.715.294.294 0 0 1 .427-.038c.13.113.15.303.038.436a25.63 25.63 0 0 1-3.867 3.81.31.31 0 0 1-.185.057ZM46.119 680.309a.297.297 0 0 1-.242-.114c-.111-.132-.074-.322.056-.436a25.183 25.183 0 0 0 3.773-3.715.294.294 0 0 1 .428-.038c.13.114.148.303.037.436a25.535 25.535 0 0 1-3.866 3.81c-.056.019-.112.057-.186.057ZM49.52 683.911a.297.297 0 0 1-.241-.114c-.112-.133-.075-.322.056-.436a25.284 25.284 0 0 0 3.773-3.715.294.294 0 0 1 .427-.038c.13.113.15.303.038.436a25.635 25.635 0 0 1-3.867 3.81.31.31 0 0 1-.186.057ZM53.164 687.797a.297.297 0 0 1-.242-.114c-.111-.133-.074-.322.056-.436a25.183 25.183 0 0 0 3.773-3.715.294.294 0 0 1 .428-.038c.13.113.148.303.037.436a25.587 25.587 0 0 1-3.866 3.81.353.353 0 0 1-.186.057ZM57.03 691.683a.297.297 0 0 1-.242-.114c-.111-.133-.074-.322.056-.436a26.144 26.144 0 0 0 3.773-3.715.294.294 0 0 1 .428-.038c.13.113.148.303.037.436a25.634 25.634 0 0 1-3.866 3.81.353.353 0 0 1-.186.057ZM289.99 194.8c-5.093 10.956-9.945 22.766-15.8 33.306l9.387 4.227 15.967-33.041-9.554-4.492Z" stroke="#3D3D61" stroke-width=".5" stroke-miterlimit="10"/><path d="M283.577 233.262a.87.87 0 0 1-.372-.076l-9.368-4.227a.944.944 0 0 1-.502-.569.978.978 0 0 1 .075-.758c4.163-7.507 7.862-15.734 11.431-23.714a871.289 871.289 0 0 1 4.331-9.535c.223-.455.762-.664 1.208-.455l9.536 4.492c.223.114.39.304.483.531a.972.972 0 0 1-.037.72l-15.967 33.041c-.167.36-.483.55-.818.55Zm-8.104-5.592 7.658 3.45 15.168-31.373-7.863-3.715a888.53 888.53 0 0 0-3.941 8.682c-3.438 7.696-7.007 15.639-11.022 22.956Z" stroke="#3D3D61" stroke-width=".5" stroke-miterlimit="10"/><path d="M267.09 221.187s25.948 12.435 26.729 13.535c-4.443 5.895-13.123 7.98-19.666 4.701-6.543-3.299-10.242-11.583-7.063-18.236Z" stroke="#3D3D61" stroke-width=".5" stroke-miterlimit="10"/><path d="M280.919 241.906c-2.472 0-4.944-.531-7.175-1.668-7.323-3.678-10.743-12.587-7.491-19.468.223-.455.762-.664 1.209-.436 9.777 4.682 26.283 12.701 27.082 13.838.242.341.223.777-.019 1.118-3.178 4.247-8.401 6.616-13.606 6.616Zm-13.383-19.468c-2.193 5.838.874 13.061 7.007 16.132 5.911 2.957 13.588 1.327 17.919-3.678-3.178-1.876-16.153-8.246-24.926-12.454ZM285.045 224.068a.297.297 0 0 1-.167-.057 25.585 25.585 0 0 0-4.665-2.464c-.149-.057-.242-.247-.168-.398.056-.152.242-.247.391-.171a25.755 25.755 0 0 1 4.777 2.521.314.314 0 0 1 .093.436.354.354 0 0 1-.261.133ZM287.239 218.969a.298.298 0 0 1-.168-.057 24.347 24.347 0 0 0-4.665-2.445c-.149-.057-.242-.247-.167-.399.055-.151.241-.246.39-.17a25.636 25.636 0 0 1 4.777 2.521.313.313 0 0 1 .093.436.413.413 0 0 1-.26.114ZM289.506 214.533a.297.297 0 0 1-.167-.057 24.377 24.377 0 0 0-4.665-2.445c-.149-.057-.242-.247-.168-.398.056-.152.242-.247.391-.171a25.755 25.755 0 0 1 4.777 2.521.314.314 0 0 1 .093.436.374.374 0 0 1-.261.114ZM291.96 209.775a.292.292 0 0 1-.167-.057 25.593 25.593 0 0 0-4.666-2.464c-.149-.057-.241-.247-.167-.398.056-.152.242-.247.39-.171a25.724 25.724 0 0 1 4.777 2.521.313.313 0 0 1 .093.436c-.074.076-.167.133-.26.133ZM294.339 204.79a.295.295 0 0 1-.167-.057 24.416 24.416 0 0 0-4.666-2.446c-.148-.056-.241-.246-.167-.398.056-.151.242-.246.391-.17a25.667 25.667 0 0 1 4.777 2.521.314.314 0 0 1 .092.436c-.074.057-.167.114-.26.114ZM71.36 133.059l-16.988 6.881-3.049 17.459 13.96 10.559 16.989-6.882 3.048-17.458-13.96-10.559Zm-.612 23.676c-3.588 1.46-7.584-.151-8.923-3.582-1.338-3.431.484-7.393 4.071-8.853 3.588-1.46 7.584.152 8.922 3.583 1.339 3.431-.483 7.412-4.07 8.852Z" stroke="#3D3D61" stroke-width=".5" stroke-miterlimit="10"/><path d="M65.283 168.905a.82.82 0 0 1-.54-.189l-13.959-10.559a.95.95 0 0 1-.353-.91l3.049-17.459a.9.9 0 0 1 .557-.701l16.99-6.881a.896.896 0 0 1 .873.114l13.96 10.558a.95.95 0 0 1 .353.91l-3.049 17.459a.897.897 0 0 1-.558.701l-16.989 6.882a.727.727 0 0 1-.334.075Zm-12.956-11.904 13.086 9.914 16.041-6.502 2.844-16.378-13.086-9.915-16.041 6.502-2.844 16.379Zm15.707 1.213c-3.067 0-5.911-1.763-7.064-4.72-1.524-3.905.54-8.417 4.591-10.066 4.053-1.649 8.588.209 10.112 4.114 1.525 3.905-.539 8.435-4.59 10.065a7.948 7.948 0 0 1-3.05.607Zm.594-13.516c-.78 0-1.598.152-2.379.474-3.122 1.27-4.721 4.701-3.569 7.639 1.153 2.958 4.629 4.322 7.733 3.071 3.123-1.27 4.721-4.701 3.569-7.639-.874-2.218-3.03-3.545-5.353-3.545ZM89.112 612.37c0-6.635 5.279-12.019 11.785-12.019 6.505 0 11.784 5.384 11.784 12.019 0 6.634-5.279 12.018-11.784 12.018-6.506 0-11.785-5.384-11.785-12.018Z" stroke="#3D3D61" stroke-width=".5" stroke-miterlimit="10"/><path d="M100.897 625.317c-7.008 0-12.696-5.801-12.696-12.947 0-7.147 5.688-12.948 12.696-12.948 7.007 0 12.695 5.801 12.695 12.948 0 7.127-5.688 12.947-12.695 12.947Zm0-24.037c-5.986 0-10.874 4.967-10.874 11.09 0 6.103 4.87 11.089 10.874 11.089 5.985 0 10.873-4.967 10.873-11.089 0-6.123-4.888-11.09-10.873-11.09ZM375.363 692.157c3.819 0 6.915-3.157 6.915-7.052 0-3.894-3.096-7.052-6.915-7.052s-6.915 3.158-6.915 7.052c0 3.895 3.096 7.052 6.915 7.052Z" stroke="#3D3D61" stroke-width=".5" stroke-miterlimit="10"/><path d="M375.363 693.105c-4.312 0-7.825-3.583-7.825-7.981s3.513-7.981 7.825-7.981 7.826 3.583 7.826 7.981-3.514 7.981-7.826 7.981Zm0-14.123c-3.308 0-6.004 2.749-6.004 6.123s2.696 6.123 6.004 6.123c3.309 0 6.004-2.749 6.004-6.123s-2.695-6.123-6.004-6.123ZM344.656 172.792c0-3.905 3.105-7.052 6.915-7.052 3.829 0 6.915 3.165 6.915 7.052 0 3.905-3.104 7.051-6.915 7.051-3.829 0-6.915-3.146-6.915-7.051Z" stroke="#3D3D61" stroke-width=".5" stroke-miterlimit="10"/><path d="M351.571 180.772c-4.312 0-7.826-3.583-7.826-7.981 0-4.397 3.514-7.98 7.826-7.98 4.312 0 7.825 3.583 7.825 7.98 0 4.398-3.513 7.981-7.825 7.981Zm0-14.104c-3.309 0-6.004 2.749-6.004 6.123 0 3.375 2.695 6.123 6.004 6.123 3.309 0 6.004-2.748 6.004-6.123 0-3.374-2.695-6.123-6.004-6.123ZM300.455 422.446c0-3.905 3.104-7.052 6.914-7.052 3.829 0 6.915 3.166 6.915 7.052 0 3.905-3.104 7.052-6.915 7.052-3.829 0-6.914-3.166-6.914-7.052Z" stroke="#3D3D61" stroke-width=".5" stroke-miterlimit="10"/><path d="M307.369 430.427c-4.312 0-7.825-3.583-7.825-7.981s3.513-7.98 7.825-7.98c4.313 0 7.826 3.582 7.826 7.98 0 4.398-3.513 7.981-7.826 7.981Zm0-14.104c-3.308 0-6.003 2.749-6.003 6.123s2.695 6.123 6.003 6.123c3.309 0 6.004-2.749 6.004-6.123s-2.695-6.123-6.004-6.123ZM255.732 116.946c-11.096 0-20.112 9.175-20.112 20.511 0 11.317 8.997 20.51 20.112 20.51 11.116 0 20.112-9.174 20.112-20.51 0-11.336-8.996-20.511-20.112-20.511Zm0 30.178c-5.241 0-9.479-4.341-9.479-9.667 0-5.346 4.256-9.668 9.479-9.668 5.224 0 9.48 4.341 9.48 9.668.019 5.326-4.238 9.667-9.48 9.667Z" stroke="#3D3D61" stroke-width=".5" stroke-miterlimit="10"/><path d="M255.732 158.877c-11.598 0-21.022-9.61-21.022-21.439s9.424-21.44 21.022-21.44c11.599 0 21.023 9.611 21.023 21.44s-9.424 21.439-21.023 21.439Zm0-41.002c-10.576 0-19.182 8.777-19.182 19.563s8.606 19.563 19.182 19.563c10.577 0 19.183-8.777 19.183-19.563.019-10.786-8.588-19.563-19.183-19.563Zm0 30.178c-5.743 0-10.409-4.758-10.409-10.615 0-5.858 4.666-10.616 10.409-10.616 5.744 0 10.41 4.758 10.41 10.616 0 5.857-4.666 10.615-10.41 10.615Zm0-19.354c-4.721 0-8.569 3.924-8.569 8.739 0 4.815 3.848 8.739 8.569 8.739 4.722 0 8.569-3.924 8.569-8.739.019-4.815-3.829-8.739-8.569-8.739ZM155.582 649.24c-11.097 0-20.112 9.175-20.112 20.511 0 11.316 8.996 20.51 20.112 20.51 11.097 0 20.112-9.175 20.112-20.51-.019-11.336-9.015-20.511-20.112-20.511Zm0 30.178c-5.242 0-9.48-4.341-9.48-9.667 0-5.346 4.257-9.668 9.48-9.668 5.242 0 9.48 4.341 9.48 9.668 0 5.345-4.238 9.667-9.48 9.667Z" stroke="#3D3D61" stroke-width=".5" stroke-miterlimit="10"/><path d="M155.582 691.19c-11.599 0-21.023-9.611-21.023-21.439 0-11.829 9.424-21.44 21.023-21.44s21.023 9.611 21.023 21.44c0 11.809-9.443 21.439-21.023 21.439Zm0-41.021c-10.576 0-19.183 8.777-19.183 19.563s8.607 19.563 19.183 19.563 19.182-8.777 19.182-19.563-8.606-19.563-19.182-19.563Zm0 30.178c-5.744 0-10.409-4.758-10.409-10.615 0-5.858 4.665-10.616 10.409-10.616 5.744 0 10.409 4.758 10.409 10.616-.019 5.857-4.684 10.615-10.409 10.615Zm0-19.354c-4.721 0-8.569 3.924-8.569 8.739 0 4.815 3.848 8.739 8.569 8.739 4.721 0 8.569-3.924 8.569-8.739 0-4.815-3.848-8.739-8.569-8.739ZM422.204 16.269c-2.379-.493-4.907.89-6.096 2.957-1.004 1.744-1.153 3.962-.261 5.782.893 1.8 2.826 3.109 4.889 3.166 3.011.075 5.688-2.654 5.744-5.574.037-2.938-2.231-5.914-4.276-6.331Z" stroke="#3D3D61" stroke-width=".5" stroke-miterlimit="10"/><path d="M420.848 29.102h-.149c-2.342-.056-4.628-1.535-5.669-3.677-1.004-2.047-.893-4.606.297-6.673 1.45-2.502 4.424-3.924 7.063-3.393 2.621.531 5.056 4.057 5.001 7.242-.038 1.668-.8 3.355-2.082 4.606-1.264 1.194-2.863 1.895-4.461 1.895Zm.39-11.999c-1.673 0-3.439 1.024-4.35 2.578-.873 1.517-.966 3.393-.241 4.891.762 1.535 2.398 2.616 4.089 2.654 1.171.038 2.361-.474 3.29-1.365.93-.91 1.487-2.104 1.506-3.298.056-2.503-1.896-5.043-3.532-5.384a3.357 3.357 0 0 0-.762-.076ZM5.579 112.946c-1.45-.303-3.011.55-3.736 1.801-.614 1.062-.707 2.427-.168 3.545.54 1.099 1.729 1.915 2.993 1.952 1.84.057 3.476-1.63 3.513-3.412.037-1.8-1.338-3.62-2.602-3.886Z" stroke="#3D3D61" stroke-width=".5" stroke-miterlimit="10"/><path d="M4.743 121.192H4.65c-1.562-.038-3.086-1.023-3.792-2.464-.67-1.365-.595-3.071.204-4.436.967-1.668 2.937-2.616 4.703-2.256 1.784.361 3.383 2.654 3.346 4.815-.019 1.119-.52 2.237-1.376 3.071-.836.796-1.914 1.27-2.992 1.27Zm.241-7.374c-.892 0-1.859.55-2.36 1.403-.484.834-.54 1.839-.13 2.654.408.815 1.3 1.403 2.193 1.422.632 0 1.264-.247 1.766-.74.501-.492.799-1.137.817-1.763.019-1.402-1.115-2.786-1.877-2.938a2.975 2.975 0 0 0-.409-.038ZM169.43 337.996c-1.45-.303-3.011.55-3.736 1.801-.613 1.061-.706 2.426-.167 3.545.539 1.118 1.728 1.914 2.992 1.952 1.841.057 3.476-1.63 3.513-3.412.038-1.801-1.338-3.621-2.602-3.886Z" stroke="#3D3D61" stroke-width=".5" stroke-miterlimit="10"/><path d="M168.593 346.223h-.093c-1.561-.038-3.085-1.024-3.791-2.464-.67-1.365-.595-3.071.204-4.436.967-1.668 2.937-2.616 4.703-2.256 1.803.36 3.383 2.654 3.346 4.815-.019 1.118-.521 2.237-1.376 3.071-.836.815-1.915 1.27-2.993 1.27Zm.242-7.355c-.892 0-1.859.55-2.361 1.403-.464.815-.52 1.857-.13 2.654.409.815 1.301 1.402 2.194 1.421.632 0 1.264-.246 1.765-.739.502-.493.8-1.137.818-1.763.019-1.403-1.115-2.787-1.877-2.938a2.976 2.976 0 0 0-.409-.038ZM485.216 238.285c-1.449-.303-3.011.55-3.736 1.801-.613 1.062-.706 2.427-.167 3.545.539 1.119 1.729 1.915 2.993 1.953 1.84.057 3.476-1.631 3.513-3.412.056-1.801-1.339-3.621-2.603-3.887Z" stroke="#3D3D61" stroke-width=".5" stroke-miterlimit="10"/><path d="M484.38 246.512h-.093c-1.561-.037-3.085-1.023-3.792-2.464-.669-1.365-.594-3.071.205-4.436.966-1.668 2.937-2.616 4.703-2.255 1.784.36 3.383 2.653 3.345 4.814-.018 1.119-.52 2.237-1.375 3.071-.837.816-1.915 1.27-2.993 1.27Zm.242-7.355c-.892 0-1.859.55-2.361 1.403-.464.815-.52 1.858-.13 2.654.409.815 1.301 1.403 2.193 1.422.632 0 1.264-.247 1.766-.739.502-.493.8-1.138.818-1.763.019-1.403-1.115-2.787-1.877-2.939a2.721 2.721 0 0 0-.409-.038Z" stroke="#3D3D61" stroke-width=".5" stroke-miterlimit="10"/><path d="M485.216 238.285c-1.449-.303-3.011.55-3.736 1.801-.613 1.062-.706 2.427-.167 3.545.539 1.119 1.729 1.915 2.993 1.953 1.84.057 3.476-1.631 3.513-3.412.056-1.801-1.339-3.621-2.603-3.887Z" stroke="#3D3D61" stroke-width=".5" stroke-miterlimit="10"/><path d="M484.38 246.512h-.093c-1.561-.037-3.085-1.023-3.792-2.464-.669-1.365-.594-3.071.205-4.436.966-1.668 2.937-2.616 4.703-2.255 1.784.36 3.383 2.653 3.345 4.814-.018 1.119-.52 2.237-1.375 3.071-.837.816-1.915 1.27-2.993 1.27Zm.242-7.355c-.892 0-1.859.55-2.361 1.403-.464.815-.52 1.858-.13 2.654.409.815 1.301 1.403 2.193 1.422.632 0 1.264-.247 1.766-.739.502-.493.8-1.138.818-1.763.019-1.403-1.115-2.787-1.877-2.939a2.721 2.721 0 0 0-.409-.038ZM11.62 600.408c-1.45-.303-3.011.55-3.736 1.801-.613 1.061-.706 2.426-.167 3.545.539 1.118 1.728 1.914 2.992 1.952 1.84.057 3.476-1.63 3.514-3.412.055-1.801-1.339-3.621-2.603-3.886Z" stroke="#3D3D61" stroke-width=".5" stroke-miterlimit="10"/><path d="M10.802 608.635h-.093c-1.561-.038-3.085-1.023-3.792-2.464-.669-1.365-.595-3.071.205-4.436.966-1.668 2.937-2.616 4.702-2.256 1.785.36 3.383 2.654 3.346 4.815-.018 1.119-.52 2.237-1.375 3.071-.855.815-1.933 1.27-2.993 1.27Zm.223-7.355c-.91 0-1.859.55-2.36 1.403-.465.815-.52 1.858-.13 2.654.408.815 1.3 1.403 2.193 1.422.613.018 1.264-.247 1.766-.74.501-.493.799-1.137.817-1.763.019-1.402-1.115-2.786-1.877-2.938a2.726 2.726 0 0 0-.409-.038ZM120.99 350.166a.935.935 0 0 1-.576-.209c-11.283-9.251-25.465-14.577-39.945-15.013-2.826-.076-5.725.019-8.532.113-4.275.152-8.699.304-13.067-.189-12.677-1.422-24.685-8.587-32.138-19.146a.95.95 0 0 1 .204-1.308.908.908 0 0 1 1.283.209c7.137 10.141 18.68 17.003 30.855 18.387 4.22.474 8.588.322 12.789.171 2.825-.095 5.762-.209 8.643-.114 14.87.436 29.443 5.914 41.042 15.412.39.322.464.909.148 1.308a.844.844 0 0 1-.706.379Z" stroke="#3D3D61" stroke-width=".5" stroke-miterlimit="10"/></svg>