<?xml version="1.0" encoding="utf-8"?>
<!-- Generator: Adobe Illustrator 21.1.0, SVG Export Plug-In . SVG Version: 6.00 Build 0)  -->
<svg version="1.1" id="Layer_1" xmlns="http://www.w3.org/2000/svg" xmlns:xlink="http://www.w3.org/1999/xlink" x="0px" y="0px"
	 viewBox="0 0 512 512" style="enable-background:new 0 0 512 512;" xml:space="preserve">
<style type="text/css">
	.st0{fill:#FFFFFF;}
</style>
<g>
	<g>
		<polygon class="st0" points="223.6,206.4 223.6,298.4 308.4,252.8 		"/>
	</g>
</g>
<path class="st0" d="M373.4,0H138.6C62.2,0,0,62.2,0,138.6v234.8C0,449.8,62.2,512,138.6,512h234.8c76.4,0,138.6-62.2,138.6-138.6
	V138.6C512,62.2,449.8,0,373.4,0z M414.5,268.6c0,26.8-2.4,54-2.4,54s-2.8,22.8-12.2,32.9c-12.2,13.4-25.6,13.4-31.7,14.2
	c-44.7,3.3-111.7,3.7-111.7,3.7s-83.3-1.2-108.9-3.7c-6.9-1.2-23.2-0.8-35.4-14.2c-9.8-10.2-12.2-32.9-12.2-32.9s-2.4-27.2-2.4-54
	v-25.2c0-26.8,2.4-54,2.4-54s2.8-22.8,12.2-32.9c12.2-13.4,25.6-13.8,31.7-14.6c45.1-3.3,112.2-3.7,112.2-3.7s67,0.4,111.7,3.7
	c6.1,0.8,19.9,1.2,32.1,14.2c9.8,10.2,12.2,33.3,12.2,33.3s2.4,27.2,2.4,54V268.6z"/>
</svg>
